<?xml version="1.0" standalone="no"?>
<!DOCTYPE svg PUBLIC "-//W3C//DTD SVG 20010904//EN"
 "http://www.w3.org/TR/2001/REC-SVG-20010904/DTD/svg10.dtd">
<svg version="1.0" xmlns="http://www.w3.org/2000/svg"
 width="90.000000pt" height="90.000000pt" viewBox="0 0 90.000000 90.000000"
 preserveAspectRatio="xMidYMid meet">

<g transform="translate(0.000000,90.000000) scale(0.100000,-0.100000)"
fill="#000000" stroke="none">
<path d="M34 825 c-12 -30 4 -45 49 -45 l44 0 48 -162 c91 -310 93 -316 125
-333 23 -12 68 -15 209 -15 184 0 217 6 238 40 18 28 95 320 89 336 -4 11 -34
14 -150 14 l-145 0 -3 88 c-3 85 -3 87 -28 87 -25 0 -25 -2 -28 -87 l-3 -88
-127 0 -127 0 -20 67 c-25 90 -49 113 -115 113 -36 0 -52 -4 -56 -15z m506
-262 l0 -97 39 38 c41 40 73 45 79 12 5 -22 -123 -156 -148 -156 -25 0 -153
134 -148 156 6 33 38 28 79 -12 l39 -38 0 97 0 97 30 0 30 0 0 -97z"/>
<path d="M320 190 c-11 -11 -20 -29 -20 -40 0 -26 34 -60 60 -60 26 0 60 34
60 60 0 11 -9 29 -20 40 -11 11 -29 20 -40 20 -11 0 -29 -9 -40 -20z"/>
<path d="M620 190 c-11 -11 -20 -29 -20 -40 0 -26 34 -60 60 -60 26 0 60 34
60 60 0 11 -9 29 -20 40 -11 11 -29 20 -40 20 -11 0 -29 -9 -40 -20z"/>
</g>
</svg>
