<?xml version="1.0" standalone="no"?>
<!DOCTYPE svg PUBLIC "-//W3C//DTD SVG 20010904//EN"
 "http://www.w3.org/TR/2001/REC-SVG-20010904/DTD/svg10.dtd">
<svg version="1.0" xmlns="http://www.w3.org/2000/svg"
 width="1287.000000pt" height="1278.000000pt" viewBox="0 0 1287.000000 1278.000000"
 preserveAspectRatio="xMidYMid meet">

<g transform="translate(0.000000,1278.000000) scale(0.100000,-0.100000)"
fill="#000000" stroke="none">
<path d="M6292 12690 c-100 -36 -177 -96 -251 -195 -39 -51 -105 -180 -122
-238 -42 -137 -69 -290 -69 -391 0 -130 45 -384 100 -571 52 -178 69 -237 81
-295 21 -100 39 -263 45 -405 8 -173 -4 -234 -61 -321 -34 -53 -85 -157 -85
-176 0 -7 19 -8 58 -4 136 14 573 18 731 7 89 -7 165 -11 167 -9 7 7 -22 75
-66 153 -80 143 -75 123 -74 315 1 101 8 221 18 285 24 169 33 209 73 335 73
230 133 537 133 683 0 104 -26 256 -69 394 -33 110 -121 252 -202 329 -119
111 -274 151 -407 104z"/>
<path d="M2092 10950 c-58 -19 -146 -75 -179 -114 -60 -68 -103 -192 -103
-294 0 -54 21 -160 48 -247 42 -133 162 -315 297 -451 134 -134 221 -194 429
-296 43 -21 102 -54 132 -73 30 -19 56 -35 59 -35 13 0 214 -145 290 -209 130
-110 265 -249 283 -290 8 -20 23 -72 33 -116 23 -106 45 -155 67 -154 9 0 40
30 67 66 68 90 395 421 505 511 50 41 90 82 90 91 0 22 -54 45 -150 65 -115
23 -144 39 -239 134 -205 202 -353 408 -496 687 -37 72 -92 168 -123 215 -88
132 -283 320 -402 389 -209 120 -463 171 -608 121z"/>
<path d="M10440 10958 c-230 -62 -396 -161 -576 -344 -108 -109 -179 -212
-270 -390 -136 -268 -281 -470 -483 -676 -91 -93 -141 -122 -246 -143 -96 -20
-154 -44 -155 -66 0 -9 37 -47 83 -85 162 -135 360 -334 492 -492 45 -54 84
-92 92 -90 19 4 48 76 64 159 6 35 20 82 29 104 26 58 155 187 358 356 33 28
210 149 218 149 3 0 18 9 33 19 15 11 90 52 167 92 188 97 283 161 396 269
199 188 297 357 349 604 31 144 23 217 -34 335 -42 87 -143 165 -258 200 -42
13 -210 13 -259 -1z"/>
<path d="M6145 9900 c-191 -12 -421 -51 -615 -102 -41 -11 -88 -24 -105 -28
-44 -11 -165 -50 -200 -65 -16 -6 -46 -18 -65 -25 -19 -7 -49 -19 -67 -26 -17
-8 -34 -14 -37 -14 -24 0 -330 -153 -450 -226 -123 -74 -114 -67 -255 -168
-458 -324 -847 -779 -1098 -1282 -82 -164 -99 -205 -168 -389 -20 -55 -41
-113 -46 -130 -4 -16 -15 -55 -24 -85 -15 -51 -44 -163 -65 -255 -13 -56 -36
-192 -52 -310 -18 -136 -18 -727 0 -845 24 -159 42 -265 52 -305 22 -96 50
-204 65 -255 9 -30 20 -68 24 -85 11 -37 77 -222 90 -250 5 -11 15 -36 23 -55
31 -80 175 -362 235 -460 237 -383 561 -741 898 -991 33 -24 62 -46 65 -49 6
-6 160 -108 218 -144 184 -115 498 -262 702 -329 146 -47 246 -77 263 -77 9 0
26 -4 39 -9 38 -15 254 -55 443 -82 121 -17 669 -18 785 -1 318 47 489 85 720
160 25 8 54 18 65 22 11 4 70 27 130 50 105 41 335 149 440 209 506 285 952
717 1268 1228 68 109 212 387 245 473 8 19 18 44 23 55 16 34 80 217 100 285
10 36 23 79 28 95 5 17 16 64 26 105 9 41 21 91 26 110 16 63 40 219 60 405
13 121 6 647 -10 750 -38 235 -48 286 -80 420 -26 104 -95 331 -120 390 -5 11
-17 40 -26 65 -98 248 -249 525 -412 752 -46 64 -89 123 -96 130 -7 7 -37 45
-69 83 -123 152 -368 388 -548 527 -76 58 -306 218 -315 218 -1 0 -34 19 -71
42 -90 54 -318 167 -419 208 -44 17 -89 36 -100 41 -113 50 -446 140 -660 178
-227 40 -605 58 -860 41z m557 -755 c270 -33 421 -67 628 -141 36 -13 69 -24
72 -24 26 0 375 -173 472 -233 556 -348 965 -866 1176 -1487 18 -52 36 -108
40 -125 4 -16 15 -57 24 -90 61 -222 93 -564 76 -821 -17 -252 -43 -412 -99
-606 -6 -21 -15 -53 -20 -70 -16 -58 -58 -172 -98 -268 -36 -86 -135 -274
-197 -374 -270 -436 -660 -792 -1124 -1025 -57 -28 -126 -61 -155 -72 -29 -11
-61 -23 -72 -28 -75 -32 -134 -52 -300 -100 -88 -26 -245 -55 -413 -77 -94
-12 -175 -15 -350 -11 -350 8 -594 52 -900 162 -145 51 -402 176 -511 247 -41
26 -75 48 -77 48 -12 0 -204 147 -291 222 -415 360 -730 864 -866 1383 -29
112 -35 140 -51 235 -35 214 -39 273 -38 485 1 283 21 444 89 710 18 74 61
213 73 240 5 11 23 54 39 95 72 185 199 414 325 590 149 207 390 454 581 592
95 68 213 148 220 148 3 0 31 16 62 36 174 111 461 225 768 304 240 62 656 87
917 55z"/>
<path d="M6215 8950 c-224 -20 -295 -35 -295 -64 0 -37 44 -148 83 -211 74
-119 71 -95 77 -565 4 -371 7 -425 20 -422 178 40 442 40 620 0 13 -3 16 51
20 422 6 472 2 442 81 572 25 42 55 107 65 144 17 64 17 67 -1 80 -10 7 -38
16 -64 19 -25 3 -73 10 -106 15 -84 13 -393 20 -500 10z"/>
<path d="M4913 8477 c-191 -129 -459 -395 -603 -600 -27 -38 -32 -52 -24 -65
17 -28 121 -78 203 -98 140 -33 144 -36 460 -351 162 -161 297 -293 300 -293
3 1 32 38 64 84 75 108 205 238 311 312 47 32 84 64 83 71 -1 6 -135 146 -297
310 -316 319 -312 314 -341 448 -14 67 -63 176 -89 200 -16 14 -22 13 -67 -18z"/>
<path d="M7837 8493 c-27 -31 -73 -136 -86 -198 -27 -130 -34 -139 -346 -453
-159 -161 -291 -298 -292 -305 -1 -7 36 -39 83 -71 106 -74 237 -205 312 -313
31 -45 60 -83 64 -83 3 0 139 132 300 293 171 171 309 300 331 310 20 10 74
27 120 39 86 22 184 65 207 92 18 23 7 43 -90 167 -140 176 -422 442 -552 519
-33 19 -36 19 -51 3z"/>
<path d="M6228 7505 c-273 -46 -541 -200 -702 -404 -48 -62 -136 -194 -136
-206 0 -3 -10 -26 -23 -53 -12 -26 -31 -74 -41 -107 -10 -33 -22 -69 -26 -81
-4 -11 -16 -79 -26 -151 -17 -126 -17 -136 0 -259 16 -114 47 -235 78 -304 32
-72 46 -100 81 -159 172 -287 471 -486 806 -537 400 -60 806 96 1056 407 47
57 135 191 135 204 0 2 11 28 24 57 22 49 37 90 64 178 20 66 43 270 37 328
-19 175 -26 211 -62 322 -91 279 -319 537 -586 664 -214 102 -457 138 -679
101z m309 -460 c70 -15 86 -20 163 -53 39 -16 142 -88 180 -125 170 -165 246
-398 201 -622 -7 -33 -16 -69 -20 -80 -5 -11 -17 -40 -27 -65 -66 -162 -221
-307 -394 -369 -341 -124 -724 49 -863 389 -29 71 -33 89 -46 199 -16 130 27
304 105 427 40 62 142 163 206 203 153 97 329 131 495 96z"/>
<path d="M6305 6841 c-101 -25 -161 -58 -230 -126 -192 -192 -193 -490 -1
-680 72 -71 149 -111 258 -133 72 -15 84 -15 156 0 110 22 186 62 257 133 192
192 192 488 0 680 -69 68 -139 106 -242 129 -88 20 -109 19 -198 -3z"/>
<path d="M3875 6850 c-21 -34 -45 -288 -45 -475 0 -187 24 -441 45 -475 20
-32 132 2 252 78 95 59 77 57 538 62 422 5 430 5 428 25 -1 11 -7 52 -13 90
-27 169 -21 392 12 504 8 26 7 35 -3 42 -8 5 -199 9 -426 9 l-412 0 -58 25
c-31 14 -71 36 -87 48 -80 58 -213 97 -231 67z"/>
<path d="M8810 6833 c-36 -14 -79 -37 -96 -49 -16 -13 -56 -35 -87 -49 l-58
-25 -412 0 c-227 0 -418 -4 -426 -9 -8 -5 -11 -16 -7 -26 13 -34 36 -230 36
-305 0 -42 -7 -123 -16 -181 -9 -57 -17 -113 -18 -124 -1 -20 7 -20 429 -25
462 -5 444 -3 538 -63 109 -69 234 -107 252 -77 4 6 15 70 26 143 26 179 26
480 0 664 -10 72 -22 136 -25 142 -12 18 -68 12 -136 -16z"/>
<path d="M4955 5390 c-314 -314 -328 -324 -465 -355 -78 -18 -197 -76 -207
-101 -15 -39 205 -299 407 -482 104 -95 230 -193 262 -205 9 -3 23 2 31 11 27
30 73 135 86 197 27 128 35 138 349 453 160 162 292 298 292 303 0 4 -42 39
-94 77 -107 80 -205 174 -267 258 -24 33 -47 61 -50 64 -3 3 -14 20 -24 38
-11 17 -22 32 -25 32 -3 0 -135 -131 -295 -290z"/>
<path d="M7507 5596 c-77 -110 -184 -219 -301 -306 -53 -39 -96 -75 -96 -79 0
-5 127 -136 283 -292 287 -287 334 -344 348 -423 18 -99 63 -209 100 -242 17
-16 22 -14 74 22 156 107 378 319 522 499 93 116 111 148 94 169 -22 27 -124
73 -201 91 -138 32 -143 35 -458 349 -161 160 -296 292 -300 293 -4 1 -33 -35
-65 -81z"/>
<path d="M6086 5063 c-3 -4 -6 -185 -6 -403 0 -453 -1 -461 -78 -588 -59 -98
-93 -205 -71 -227 14 -14 87 -26 284 -46 223 -23 652 10 678 52 15 24 -26 143
-77 225 -73 118 -70 95 -76 564 -4 371 -7 425 -20 422 -191 -43 -474 -44 -602
-2 -14 4 -29 6 -32 3z"/>
<path d="M745 6919 c-130 -24 -229 -52 -310 -90 -362 -167 -468 -499 -236
-742 163 -171 434 -270 746 -271 170 0 293 23 520 99 230 76 533 125 781 125
157 0 194 -9 285 -72 67 -46 155 -82 164 -67 4 5 2 47 -4 92 -22 179 -20 658
5 815 6 39 5 42 -17 42 -29 0 -97 -33 -160 -77 -77 -53 -118 -63 -278 -63
-253 0 -516 42 -766 122 -170 55 -228 70 -314 84 -103 15 -336 17 -416 3z"/>
<path d="M11650 6915 c-85 -14 -116 -22 -261 -69 -297 -95 -540 -136 -810
-136 -160 0 -201 10 -278 63 -62 44 -131 77 -160 77 -21 0 -23 -3 -17 -32 26
-147 29 -663 5 -835 -6 -40 -8 -77 -4 -83 9 -14 98 22 164 68 91 63 128 72
285 72 260 0 546 -48 811 -135 55 -18 125 -40 155 -48 191 -52 436 -54 640 -6
333 80 561 286 563 512 3 327 -375 571 -877 566 -78 -1 -175 -7 -216 -14z"/>
<path d="M3416 4043 c-19 -44 -46 -145 -46 -174 0 -111 -419 -478 -725 -636
-33 -17 -105 -54 -160 -83 -285 -147 -527 -412 -616 -673 -31 -91 -59 -232
-59 -297 0 -94 44 -202 112 -276 80 -87 170 -124 300 -124 129 0 277 39 421
111 110 55 176 106 297 228 120 121 189 220 285 406 146 283 279 468 490 680
98 98 130 116 240 139 103 22 155 44 155 67 0 9 -19 32 -42 51 -177 138 -520
487 -592 601 -18 28 -42 20 -60 -20z"/>
<path d="M9272 3973 c-142 -170 -360 -386 -495 -492 -37 -29 -67 -61 -67 -70
0 -22 52 -44 155 -67 108 -23 144 -43 228 -127 216 -217 353 -405 499 -687 83
-161 83 -161 147 -250 64 -89 221 -249 305 -310 152 -110 381 -190 549 -190
203 0 352 115 401 311 26 104 17 214 -29 354 -89 271 -344 557 -630 705 -94
49 -147 78 -255 138 -144 80 -348 241 -502 394 -101 101 -114 123 -139 237
-21 103 -44 161 -63 161 -8 0 -54 -48 -104 -107z"/>
<path d="M5930 2645 c0 -22 44 -110 76 -152 61 -80 69 -115 68 -288 -1 -268
-49 -553 -135 -808 -101 -297 -115 -562 -45 -817 31 -113 38 -132 73 -203 152
-300 393 -410 633 -287 53 27 130 98 180 165 38 52 104 180 121 238 97 317 92
569 -19 902 -51 154 -67 217 -101 395 -21 111 -35 269 -35 415 -1 170 5 193
79 305 44 67 73 135 63 145 -3 4 -70 1 -147 -6 -137 -11 -649 -7 -763 7 -41 5
-48 3 -48 -11z"/>
</g>
</svg>
