<?xml version="1.0" standalone="no"?>
<!DOCTYPE svg PUBLIC "-//W3C//DTD SVG 20010904//EN"
 "http://www.w3.org/TR/2001/REC-SVG-20010904/DTD/svg10.dtd">
<svg version="1.0" xmlns="http://www.w3.org/2000/svg"
 width="100.000000pt" height="100.000000pt" viewBox="0 0 100.000000 100.000000"
 preserveAspectRatio="xMidYMid meet">

<g transform="translate(0.000000,100.000000) scale(0.100000,-0.100000)"
fill="#000000" stroke="none">
<path d="M124 941 c-83 -51 -98 -109 -55 -221 l30 -80 -30 -78 -29 -78 2 -220
3 -219 455 0 455 0 3 219 2 220 -29 78 -30 78 30 80 c40 104 35 138 -27 198
l-44 42 -353 0 c-327 0 -354 -1 -383 -19z m434 -88 l27 -28 -42 -3 c-24 -2
-62 -2 -85 0 l-43 3 27 28 c18 18 38 27 58 27 20 0 40 -9 58 -27z m347 -90
c-4 -10 -14 -37 -22 -61 l-15 -43 -107 5 c-207 9 -228 12 -256 34 -35 27 -67
28 -90 2 -10 -11 -28 -20 -41 -20 -13 0 -26 -4 -29 -10 -3 -6 -51 -10 -110
-10 l-103 0 -15 43 c-8 23 -18 50 -22 60 -7 16 16 17 405 17 389 0 412 -1 405
-17z m-411 -104 c12 -17 26 -21 81 -22 54 -2 69 -6 81 -22 10 -14 24 -19 48
-17 26 3 38 -2 55 -24 11 -15 21 -33 21 -40 0 -7 8 -18 18 -23 12 -7 -80 -10
-300 -11 -175 0 -318 4 -318 8 0 16 25 32 50 32 14 0 30 8 38 20 8 13 23 20
42 20 22 0 30 5 30 18 0 25 20 42 50 42 14 0 30 8 38 20 16 26 47 26 66 -1z
m-239 -59 c-10 -11 -29 -20 -42 -20 -27 0 -73 -41 -73 -65 0 -10 -9 -15 -26
-15 -21 0 -25 3 -19 18 4 9 14 36 22 60 l15 42 70 0 c70 0 71 0 53 -20z m628
-22 c8 -24 18 -51 22 -60 5 -14 2 -18 -13 -18 -25 0 -70 42 -93 88 l-17 32 43
0 c42 0 44 -1 58 -42z m-303 -183 c0 -57 -3 -69 -25 -90 -32 -33 -78 -33 -110
0 -22 21 -25 33 -25 90 l0 65 80 0 80 0 0 -65z m-438 -252 c14 -14 28 -34 31
-44 5 -17 -1 -19 -44 -19 l-49 0 0 50 c0 43 2 49 18 43 9 -3 29 -17 44 -30z
m778 -13 l0 -50 -50 0 c-43 0 -49 2 -43 18 12 33 56 72 91 81 1 1 2 -21 2 -49z"/>
<path d="M482 373 c4 -37 32 -37 36 0 3 22 -1 27 -18 27 -17 0 -21 -5 -18 -27z"/>
</g>
</svg>
