<?xml version="1.0" standalone="no"?>
<!DOCTYPE svg PUBLIC "-//W3C//DTD SVG 20010904//EN"
 "http://www.w3.org/TR/2001/REC-SVG-20010904/DTD/svg10.dtd">
<svg version="1.0" xmlns="http://www.w3.org/2000/svg"
 width="90.000000pt" height="90.000000pt" viewBox="0 0 90.000000 90.000000"
 preserveAspectRatio="xMidYMid meet">

<g transform="translate(0.000000,90.000000) scale(0.100000,-0.100000)"
fill="#000000" stroke="none">
<path d="M34 825 c-12 -30 4 -45 49 -45 l44 0 48 -162 c91 -310 93 -316 125
-333 23 -12 68 -15 209 -15 184 0 217 6 238 40 18 28 95 320 89 336 -4 12 -55
14 -308 14 l-303 0 -20 67 c-25 90 -49 113 -115 113 -36 0 -52 -4 -56 -15z
m453 -277 l23 -21 24 22 c47 44 89 2 45 -45 l-22 -24 22 -24 c44 -47 2 -89
-45 -45 l-24 22 -24 -22 c-47 -44 -89 -2 -45 45 l22 24 -21 23 c-49 52 -7 94
45 45z"/>
<path d="M320 190 c-11 -11 -20 -29 -20 -40 0 -26 34 -60 60 -60 26 0 60 34
60 60 0 11 -9 29 -20 40 -11 11 -29 20 -40 20 -11 0 -29 -9 -40 -20z"/>
<path d="M620 190 c-11 -11 -20 -29 -20 -40 0 -26 34 -60 60 -60 26 0 60 34
60 60 0 11 -9 29 -20 40 -11 11 -29 20 -40 20 -11 0 -29 -9 -40 -20z"/>
</g>
</svg>
