<?xml version="1.0" standalone="no"?>
<!DOCTYPE svg PUBLIC "-//W3C//DTD SVG 20010904//EN"
 "http://www.w3.org/TR/2001/REC-SVG-20010904/DTD/svg10.dtd">
<svg version="1.0" xmlns="http://www.w3.org/2000/svg"
 width="96.000000pt" height="96.000000pt" viewBox="0 0 96.000000 96.000000"
 preserveAspectRatio="xMidYMid meet">

<g transform="translate(0.000000,96.000000) scale(0.100000,-0.100000)"
fill="#000000" stroke="none">
<path d="M424 866 c-32 -14 -64 -67 -64 -106 0 -39 32 -93 62 -104 25 -9 28
-16 28 -53 l0 -42 -52 -3 c-49 -3 -53 -5 -53 -28 0 -23 4 -25 53 -28 l52 -3 0
-170 0 -171 -32 7 c-43 9 -125 49 -163 80 -26 21 -28 27 -17 42 37 53 21 73
-58 73 -72 0 -82 -11 -78 -86 4 -68 24 -90 57 -60 20 18 21 18 56 -13 47 -41
122 -78 184 -92 35 -7 50 -16 54 -30 7 -25 47 -25 54 0 4 14 19 23 54 30 62
14 137 51 184 92 35 31 36 31 56 13 33 -30 53 -8 57 60 4 75 -6 86 -78 86 -66
0 -93 -19 -72 -48 25 -35 25 -44 -4 -68 -37 -30 -119 -71 -161 -79 l-33 -7 0
171 0 170 53 3 c48 3 52 5 52 28 0 23 -4 25 -52 28 l-53 3 0 42 c0 37 3 44 28
53 30 11 62 65 62 104 0 41 -32 92 -66 106 -41 17 -70 17 -110 0z m98 -63 c22
-20 23 -51 2 -81 -30 -43 -104 -17 -104 36 0 54 62 81 102 45z"/>
</g>
</svg>
