<?xml version="1.0" standalone="no"?>
<!DOCTYPE svg PUBLIC "-//W3C//DTD SVG 20010904//EN"
 "http://www.w3.org/TR/2001/REC-SVG-20010904/DTD/svg10.dtd">
<svg version="1.0" xmlns="http://www.w3.org/2000/svg"
 width="1085.000000pt" height="1007.000000pt" viewBox="0 0 1085.000000 1007.000000"
 preserveAspectRatio="xMidYMid meet">

<g transform="translate(0.000000,1007.000000) scale(0.100000,-0.100000)"
fill="#000000" stroke="none">
<path d="M1098 10016 c-154 -44 -268 -185 -268 -331 0 -82 21 -138 80 -220 21
-28 44 -64 53 -82 19 -35 22 -108 8 -146 -18 -47 -70 -95 -122 -112 -49 -17
-53 -16 -122 6 -93 29 -126 46 -159 81 -39 42 -120 61 -205 48 -128 -21 -221
-87 -275 -198 -63 -127 -38 -264 69 -370 86 -86 172 -112 371 -112 101 -1 145
-5 214 -24 182 -49 277 -114 528 -359 161 -158 241 -229 604 -535 168 -142
169 -142 199 -83 14 26 32 58 78 136 77 130 237 344 362 484 31 35 57 68 57
74 0 5 -15 22 -32 37 -199 169 -404 343 -498 422 -116 97 -304 283 -352 348
-43 60 -106 195 -129 277 -16 57 -23 123 -28 248 -7 146 -11 176 -30 216 -70
146 -258 237 -403 195z"/>
<path d="M9370 10016 c-73 -20 -122 -48 -172 -97 -84 -84 -108 -162 -108 -356
0 -138 -24 -243 -83 -361 -72 -143 -205 -284 -562 -597 -279 -244 -306 -267
-349 -306 l-40 -37 65 -73 c147 -164 289 -362 403 -558 34 -58 66 -106 73
-106 8 0 360 299 393 335 3 3 39 34 80 69 41 36 149 137 240 226 250 243 304
288 416 342 43 22 102 45 129 52 28 7 66 16 85 21 19 5 105 11 190 14 85 2
172 9 192 15 90 28 183 115 224 208 20 47 25 188 7 226 -7 15 -19 39 -25 54
-20 41 -100 117 -149 140 -142 67 -280 49 -404 -53 -77 -63 -148 -79 -218 -49
-71 30 -117 100 -117 179 1 47 14 74 86 179 40 58 54 89 64 140 34 181 -88
352 -282 397 -55 12 -82 12 -138 -4z"/>
<path d="M4930 8990 c-30 -5 -100 -14 -155 -20 -55 -6 -118 -15 -140 -20 -22
-5 -92 -21 -155 -34 -63 -14 -153 -37 -200 -51 -47 -15 -112 -35 -145 -44 -33
-10 -80 -27 -105 -39 -25 -11 -81 -34 -125 -52 -223 -88 -552 -285 -771 -461
-578 -465 -971 -1172 -1099 -1979 -64 -402 -57 -765 20 -1040 15 -52 29 -105
32 -118 3 -12 9 -25 14 -28 5 -3 9 -13 9 -22 0 -40 128 -264 283 -494 216
-320 269 -433 298 -628 15 -108 8 -211 -31 -400 -70 -345 -53 -476 67 -528 96
-41 185 -52 514 -61 197 -5 324 -13 337 -20 11 -6 29 -11 39 -11 22 0 166 -73
210 -106 44 -34 114 -103 144 -144 34 -46 82 -143 98 -200 7 -25 18 -58 24
-74 6 -17 11 -100 11 -195 -1 -198 -21 -299 -99 -494 -16 -38 -24 -72 -19 -76
18 -16 124 -53 155 -54 l32 -2 37 145 c20 80 43 172 50 205 19 83 37 125 68
158 40 43 75 57 138 57 70 0 121 -26 157 -83 39 -60 36 -121 -18 -333 -25 -96
-45 -186 -45 -199 0 -28 9 -31 111 -40 l77 -6 10 48 c6 26 15 73 21 103 82
412 79 401 124 448 105 110 273 65 317 -85 11 -36 10 -57 -9 -155 -23 -118
-37 -185 -51 -253 -20 -92 -22 -118 -8 -126 15 -10 301 -12 336 -3 12 4 22 14
22 23 1 9 -21 122 -47 253 -44 223 -46 239 -33 279 52 155 254 188 339 55 28
-45 28 -48 92 -366 22 -113 44 -208 47 -212 10 -10 173 9 185 21 5 5 -10 84
-39 197 -58 230 -62 292 -21 351 52 75 149 104 230 69 80 -34 100 -75 161
-321 26 -104 50 -198 53 -207 6 -25 42 -23 108 6 35 16 55 31 55 42 0 9 -16
58 -35 110 -64 171 -78 249 -79 439 0 150 3 179 22 243 50 161 122 272 230
357 59 48 206 125 236 125 9 0 27 5 39 11 13 8 133 15 332 20 448 12 544 36
606 149 17 31 18 254 2 320 -6 25 -17 72 -23 105 -6 33 -16 78 -22 100 -15 57
-12 277 5 360 37 178 114 356 205 476 81 108 226 328 275 416 88 160 155 369
186 581 14 93 14 484 1 610 -34 313 -116 663 -210 897 -4 11 -18 47 -31 80
-30 81 -151 322 -206 414 -90 149 -135 214 -228 330 -294 370 -649 649 -1103
867 -92 44 -261 114 -337 139 -122 40 -280 86 -350 101 -44 9 -98 20 -120 25
-45 11 -141 25 -265 41 -104 13 -764 19 -840 8z m-555 -531 c94 -65 112 -192
38 -280 -37 -44 -78 -61 -145 -61 -48 0 -66 5 -98 27 -106 73 -116 199 -24
291 23 24 55 45 70 47 54 9 126 -2 159 -24z m-570 -389 c22 -15 45 -38 51 -51
41 -87 43 -111 13 -174 -23 -50 -69 -90 -204 -183 -97 -67 -248 -206 -311
-287 -21 -27 -52 -66 -69 -86 -43 -48 -167 -259 -200 -339 -15 -36 -36 -85
-47 -110 -19 -42 -32 -84 -71 -245 -32 -126 -42 -239 -39 -429 2 -180 1 -191
-22 -241 -54 -119 -194 -149 -292 -63 -64 56 -68 75 -68 338 -1 223 4 279 35
435 20 99 32 142 76 275 151 454 456 849 868 1127 116 78 199 88 280 33z m90
-2881 c164 -78 285 -89 426 -40 46 16 113 41 148 56 90 38 146 33 237 -23 123
-75 213 -174 267 -292 47 -102 52 -129 52 -275 0 -142 -5 -173 -46 -262 -10
-24 -19 -45 -19 -48 0 -3 -21 -37 -47 -77 -68 -107 -209 -244 -331 -322 -56
-36 -105 -66 -107 -66 -3 0 -24 -9 -48 -19 -224 -103 -594 -131 -815 -62 -90
28 -231 112 -309 184 -94 87 -185 240 -208 349 -73 344 144 703 544 901 101
50 142 50 256 -4z m2343 -4 c123 -54 168 -65 267 -65 105 0 153 13 255 69 101
55 153 56 254 4 170 -87 332 -222 417 -345 42 -62 100 -180 118 -243 18 -62
25 -212 13 -288 -25 -161 -155 -347 -317 -455 -154 -102 -290 -142 -487 -142
-206 0 -398 39 -564 115 -204 93 -449 329 -514 495 -7 19 -16 40 -20 45 -7 10
-17 50 -39 147 -20 87 -9 185 36 316 55 160 209 323 359 380 49 19 132 7 222
-33z m-815 -1250 c188 -57 353 -243 456 -515 62 -164 73 -357 29 -487 -79
-229 -261 -383 -500 -423 -195 -33 -387 30 -533 175 -124 123 -174 238 -182
411 -9 194 68 423 204 608 82 111 182 187 303 232 48 17 164 17 223 -1z"/>
<path d="M3681 4775 c-84 -64 -146 -136 -183 -213 -40 -85 -44 -183 -10 -248
45 -88 155 -165 277 -195 82 -20 277 -15 365 9 173 47 265 97 365 197 119 119
154 184 155 293 0 69 -28 138 -73 180 l-25 23 -103 -35 c-192 -65 -394 -66
-586 -1 -55 19 -106 35 -111 35 -6 0 -37 -20 -71 -45z"/>
<path d="M6073 4798 c-51 -55 -67 -99 -67 -183 1 -93 13 -125 78 -212 123
-163 328 -272 561 -296 231 -24 443 58 516 199 19 39 24 62 24 123 -1 85 -27
149 -92 229 -35 43 -178 162 -194 162 -4 0 -41 -13 -82 -30 -193 -77 -438 -75
-634 5 -76 31 -84 31 -110 3z"/>
<path d="M5279 3555 c-79 -43 -209 -302 -209 -418 0 -159 147 -282 294 -246
168 42 231 202 156 396 -40 104 -96 196 -147 244 -46 43 -56 45 -94 24z"/>
<path d="M8397 3323 c-4 -4 -5 -27 -1 -52 6 -50 -16 -190 -41 -261 -71 -200
-238 -337 -468 -385 -16 -3 -27 -11 -24 -18 2 -7 93 -88 203 -180 109 -93 231
-196 269 -229 120 -105 722 -699 785 -774 137 -167 188 -319 195 -580 3 -122
7 -148 28 -195 32 -73 91 -130 174 -170 59 -28 78 -33 143 -32 139 1 257 71
316 190 26 52 29 68 29 153 0 108 -12 140 -90 239 -55 70 -69 125 -49 190 27
89 87 135 179 135 59 0 65 -3 145 -59 155 -109 269 -122 417 -46 39 19 143
123 143 142 0 6 9 29 20 51 47 98 11 238 -88 337 -84 84 -181 111 -398 111
-113 0 -226 27 -339 81 -129 61 -156 84 -685 604 -140 138 -334 317 -430 399
-96 81 -186 158 -200 169 -234 201 -222 192 -233 180z"/>
<path d="M2140 3073 c-47 -42 -168 -148 -270 -237 -102 -88 -302 -276 -445
-418 -292 -288 -293 -289 -390 -363 -157 -119 -288 -160 -535 -169 -174 -6
-230 -20 -305 -76 -160 -120 -185 -323 -58 -479 128 -155 344 -173 510 -42 71
55 92 64 153 64 89 0 157 -50 180 -131 20 -74 3 -131 -63 -210 -58 -69 -87
-145 -87 -226 1 -206 207 -375 410 -336 112 21 213 97 260 195 21 44 24 70 30
215 8 191 30 294 88 405 72 139 62 128 528 586 181 178 325 312 455 424 180
156 349 308 349 314 0 5 -35 11 -77 14 -183 13 -349 86 -473 207 -84 83 -118
142 -146 255 -9 39 -20 73 -23 77 -3 3 -44 -28 -91 -69z"/>
<path d="M3672 1334 c-49 -34 -75 -154 -75 -349 -1 -144 1 -154 32 -243 50
-144 112 -242 223 -352 142 -141 334 -245 533 -288 114 -25 602 -52 940 -52
333 0 830 27 935 51 197 45 382 140 525 270 36 33 145 162 145 171 0 3 16 32
35 64 72 119 110 310 93 468 -13 130 -38 217 -68 248 -43 42 -82 38 -225 -27
-68 -30 -127 -55 -131 -55 -5 0 -39 -10 -76 -21 -43 -14 -70 -28 -73 -39 -3
-10 -30 -116 -60 -235 -30 -120 -63 -231 -72 -248 -10 -16 -35 -44 -56 -61
-35 -28 -46 -31 -105 -31 -75 0 -110 18 -160 82 -38 51 -36 129 7 296 18 71
29 132 25 136 -10 9 -160 -2 -170 -12 -3 -3 -15 -39 -26 -79 -11 -40 -24 -86
-28 -103 -5 -16 -15 -56 -24 -88 -19 -68 -47 -126 -72 -148 -107 -94 -268 -48
-313 88 -13 39 -12 51 14 150 15 59 30 120 32 136 l5 27 -157 0 -157 0 5 -27
c3 -16 11 -46 17 -68 38 -132 43 -172 29 -219 -15 -50 -54 -98 -101 -122 -47
-24 -135 -15 -188 20 -51 34 -65 64 -121 261 -23 83 -48 156 -55 164 -16 17
-158 28 -168 13 -3 -6 10 -71 29 -145 50 -190 45 -255 -22 -319 -30 -28 -100
-58 -137 -58 -27 0 -94 32 -122 56 -37 34 -55 83 -110 307 -30 121 -59 225
-63 231 -5 6 -31 17 -58 24 -26 8 -58 18 -71 23 -13 5 -30 9 -38 9 -9 0 -68
25 -131 55 -122 58 -155 65 -191 39z"/>
</g>
</svg>
