<?xml version="1.0" standalone="no"?>
<!DOCTYPE svg PUBLIC "-//W3C//DTD SVG 20010904//EN"
 "http://www.w3.org/TR/2001/REC-SVG-20010904/DTD/svg10.dtd">
<svg version="1.0" xmlns="http://www.w3.org/2000/svg"
 width="100.000000pt" height="100.000000pt" viewBox="0 0 100.000000 100.000000"
 preserveAspectRatio="xMidYMid meet">

<g transform="translate(0.000000,100.000000) scale(0.100000,-0.100000)"
fill="#000000" stroke="none">
<path d="M124 941 c-17 -10 -41 -33 -53 -49 -36 -51 -36 -82 -2 -171 l30 -81
-30 -78 -29 -78 2 -220 3 -219 455 0 455 0 3 219 2 220 -29 78 -30 78 30 81
c35 91 34 122 -7 176 -48 63 -48 63 -426 63 -319 0 -345 -1 -374 -19z m752
-55 c62 -62 54 -66 -121 -66 l-154 0 -15 28 c-15 29 -53 52 -86 52 -33 0 -71
-23 -86 -52 l-15 -28 -154 0 c-175 0 -183 4 -121 66 l34 34 342 0 342 0 34
-34z m-345 -36 c33 -18 21 -30 -31 -30 -51 0 -64 11 -32 29 22 13 39 13 63 1z
m374 -87 c-4 -10 -14 -37 -22 -61 l-15 -43 -107 5 c-207 9 -228 12 -256 34
-35 27 -67 28 -90 2 -10 -11 -28 -20 -41 -20 -13 0 -26 -4 -29 -10 -3 -6 -51
-10 -110 -10 l-103 0 -15 43 c-8 23 -18 50 -22 60 -7 16 16 17 405 17 389 0
412 -1 405 -17z m-411 -104 c12 -17 26 -21 81 -22 54 -2 69 -6 81 -22 10 -14
24 -19 48 -17 26 3 38 -2 55 -24 11 -15 21 -33 21 -40 0 -7 8 -18 18 -23 12
-7 -80 -10 -300 -11 -175 0 -318 4 -318 8 0 16 25 32 50 32 14 0 30 8 38 20 8
13 23 20 42 20 22 0 30 5 30 18 0 25 20 42 50 42 14 0 30 8 38 20 16 26 47 26
66 -1z m-239 -59 c-10 -11 -29 -20 -42 -20 -27 0 -73 -41 -73 -65 0 -10 -9
-15 -26 -15 -21 0 -25 3 -19 18 4 9 14 36 22 60 l15 42 70 0 c70 0 71 0 53
-20z m628 -22 c8 -24 18 -51 22 -60 5 -14 2 -18 -13 -18 -25 0 -70 42 -93 88
l-17 32 43 0 c42 0 44 -1 58 -42z m-483 -168 c0 -61 19 -102 55 -118 34 -16
60 -15 94 2 35 19 51 55 51 116 l0 50 160 0 160 0 0 -140 c0 -136 -1 -141 -22
-149 -26 -10 -62 -47 -71 -73 -6 -17 -31 -18 -327 -18 -296 0 -321 1 -327 17
-9 27 -45 64 -70 74 -22 8 -23 13 -23 149 l0 140 160 0 160 0 0 -50z m160 0
c0 -37 -5 -55 -20 -70 -46 -46 -100 -9 -100 70 l0 50 60 0 60 0 0 -50z m-446
-296 c23 -22 20 -34 -9 -34 -20 0 -25 5 -25 25 0 29 12 32 34 9z m806 -9 c0
-20 -5 -25 -25 -25 -29 0 -32 12 -9 34 22 23 34 20 34 -9z"/>
<path d="M482 393 c4 -37 32 -37 36 0 3 22 -1 27 -18 27 -17 0 -21 -5 -18 -27z"/>
</g>
</svg>
