<?xml version="1.0" standalone="no"?>
<!DOCTYPE svg PUBLIC "-//W3C//DTD SVG 20010904//EN"
 "http://www.w3.org/TR/2001/REC-SVG-20010904/DTD/svg10.dtd">
<svg version="1.0" xmlns="http://www.w3.org/2000/svg"
 width="96.000000pt" height="96.000000pt" viewBox="0 0 96.000000 96.000000"
 preserveAspectRatio="xMidYMid meet">

<g transform="translate(0.000000,96.000000) scale(0.100000,-0.100000)"
fill="#000000" stroke="none">
<path d="M387 870 c-44 -12 -137 -57 -137 -68 0 -4 24 -31 53 -60 l53 -52 43
15 c24 8 60 15 81 15 21 0 57 -7 81 -15 l43 -15 53 52 c29 29 53 56 53 61 0 4
-29 22 -65 38 -72 34 -187 47 -258 29z"/>
<path d="M117 643 c-29 -62 -32 -77 -32 -163 0 -86 3 -101 32 -163 18 -37 36
-67 40 -67 5 0 32 24 61 53 l52 53 -15 43 c-8 24 -15 60 -15 81 0 21 7 57 15
81 l15 43 -52 53 c-29 29 -56 53 -61 53 -4 0 -22 -30 -40 -67z"/>
<path d="M742 657 l-52 -53 15 -43 c19 -56 19 -110 -1 -162 l-17 -41 54 -54
c29 -30 57 -54 62 -54 4 0 22 30 40 67 29 62 32 77 32 163 0 86 -3 101 -32
163 -18 37 -36 67 -40 67 -5 0 -32 -24 -61 -53z"/>
<path d="M302 217 c-29 -29 -52 -56 -52 -60 0 -5 30 -22 68 -40 61 -29 76 -32
162 -32 86 0 101 3 163 32 37 18 67 36 67 40 0 5 -24 32 -53 61 l-53 52 -43
-15 c-55 -19 -107 -19 -161 0 -23 8 -43 15 -44 15 -1 0 -25 -24 -54 -53z"/>
</g>
</svg>
