<?xml version="1.0" encoding="UTF-8" standalone="no"?>
<!-- Created with Inkscape (http://www.inkscape.org/) -->

<svg
   width="210mm"
   height="297mm"
   viewBox="0 0 210 297"
   version="1.1"
   id="svg3143"
   inkscape:version="1.2.2 (b0a84865, 2022-12-01)"
   sodipodi:docname="RopeBoxLogo.svg"
   xmlns:inkscape="http://www.inkscape.org/namespaces/inkscape"
   xmlns:sodipodi="http://sodipodi.sourceforge.net/DTD/sodipodi-0.dtd"
   xmlns="http://www.w3.org/2000/svg"
   xmlns:svg="http://www.w3.org/2000/svg">
  <sodipodi:namedview
     id="namedview3145"
     pagecolor="#ffffff"
     bordercolor="#666666"
     borderopacity="1.0"
     inkscape:showpageshadow="2"
     inkscape:pageopacity="0.0"
     inkscape:pagecheckerboard="0"
     inkscape:deskcolor="#d1d1d1"
     inkscape:document-units="mm"
     showgrid="false"
     inkscape:zoom="0.914906"
     inkscape:cx="396.76207"
     inkscape:cy="561.25984"
     inkscape:window-width="1390"
     inkscape:window-height="1205"
     inkscape:window-x="44"
     inkscape:window-y="44"
     inkscape:window-maximized="0"
     inkscape:current-layer="layer1" />
  <defs
     id="defs3140" />
  <g
     inkscape:label="Layer 1"
     inkscape:groupmode="layer"
     id="layer1">
    <g
       transform="translate(-381.22703,-9.3497514)"
       id="g1489">
      <g
         style="fill:#002080;fill-opacity:1"
         transform="matrix(0.35277777,0,0,-0.35277777,388.23875,71.344432)"
         id="g254-1-1-3-8">
        <path
           id="path256-8-0-9-1"
           style="fill:#002080;fill-opacity:1;fill-rule:nonzero;stroke:none"
           d="m 9.577767,-5.9994453 c 0,0 -4.7574481,-4.2101847 -3.0590339,-4.5631957 0,0 11.8510489,1.2482765 24.3802669,-11.633359 18.780738,-18.099957 54.079,0.807 75.065,7.668 20.986,6.86 30.48682,3.661515 46.815,-9.686 12.6036,-10.368847 35.05101,-8.226655 62.151,6.457 16.04939,9.2199302 37.0985,10.9896113 54.886,-4.036 16.79428,-12.541555 40.94826,-4.379916 56.097,3.368097 12.57077,5.752648 25.45118,7.151865 34.84406,7.594564 1.69724,0.07999 -6.15473,5.2326299 -6.15473,5.2326299 0,0 -10.9681,3.0393088 -40.05244,-10.2192909 -15.49172,-6.689375 -32.62689,-11.222 -48.36589,3.306 -15.74,14.53 -37.43939,13.13176415 -48.429,6.862 -18.06632,-9.623891 -47.9334,-26.667528 -62.555,-13.319 -16.85635,15.8325849 -29.057,24.618 -64.572,7.265 -39.363738,-22.071808 -55.29,-8.815917 -64.572,0.807 -8.917014,9.244526 -6.802679,3.0036995 -16.478233,4.8965547"
           sodipodi:nodetypes="csccccccsccccccsc" />
      </g>
      <g
         style="fill:#ff9900;fill-opacity:1"
         id="g162-2-9-5"
         transform="matrix(0.35277777,0,0,-0.35277777,515.77299,75.053412)">
        <path
           d="M 0,0 C -2.528,91.517 -81.17,164.965 -177.815,164.965 -274.46,164.965 -353.102,91.517 -355.63,0 Z"
           style="fill:#ff9900;fill-opacity:1;fill-rule:nonzero;stroke:none"
           id="path164-4-7-3" />
      </g>
      <g
         id="g166-04-0-5"
         transform="matrix(0.35277777,0,0,-0.35277777,444.80743,20.325162)">
        <path
           d="m 0,0 -22.282,-21.539 c 0,0 12.626,-59.79 -24.51,-121.808 0,0 49.392,24.882 46.792,143.347"
           style="fill:#ffffff;fill-opacity:1;fill-rule:nonzero;stroke:none"
           id="path168-3-3-4" />
      </g>
      <g
         id="g170-1-9-3"
         transform="matrix(0.35277777,0,0,-0.35277777,434.32662,29.364732)">
        <path
           d="m 0,0 -121.065,-124.997 h 97.669 c 0,0 38.622,80.508 23.396,124.997"
           style="fill:#ffffff;fill-opacity:1;fill-rule:nonzero;stroke:none"
           id="path172-79-8-6" />
      </g>
      <g
         id="g202-4-65-5"
         transform="matrix(0.35277777,0,0,-0.35277777,478.72638,64.776172)">
        <path
           d="m 0,0 c 0,-4.2 -3.405,-7.605 -7.605,-7.605 -4.201,0 -7.605,3.405 -7.605,7.605 0,4.2 3.404,7.605 7.605,7.605 C -3.405,7.605 0,4.2 0,0"
           style="fill:#feffff;fill-opacity:1;fill-rule:nonzero;stroke:none"
           id="path204-7-7-9" />
      </g>
      <g
         style="fill:#002080;fill-opacity:1"
         id="g254-01-6-5"
         transform="matrix(0.35277777,0,0,-0.35277777,390.80231,79.182362)">
        <path
           sodipodi:nodetypes="csccccccsccccccsc"
           d="m 0.10382063,1.8622924 c 0,0 0.73693366,0.099616 2.63530547,-0.2557821 C 11.40688,-0.01619823 15.78566,-7.1862638 30.899,-22.196 c 18.780738,-18.099957 49.649126,-2.600595 75.065,7.668 17.74878,7.2007595 31.33872,3.150376 47.6669,-10.197139 12.6036,-10.368847 34.19911,-7.715516 61.2991,6.968139 16.04939,9.2199302 37.0985,10.9896113 54.886,-4.036 16.79428,-12.541555 29.58515,-7.772013 44.73389,-0.024 14.30937,7.49125 22.09331,19.8923717 39.28665,19.5428243 3.67551,-0.074725 -0.56257,1.0134573 -0.56257,1.0134573 0,0 -13.92733,4.3857227 -33.2148,-8.9729266 C 306.72962,-18.837859 286.69363,-26.86862 266.184,-12.511 246.52527,2.1893798 228.74461,0.62076415 217.755,-5.649 199.68868,-15.272891 171.01426,-31.975768 150.94051,-15.049266 132.72112,-0.75009847 126.143,5.65 90.628,-11.703 51.264262,-33.774808 35.338,-20.518917 26.056,-10.896 17.138986,-1.651474 6.7368206,3.8812924 0.10382063,1.8622924"
           style="fill:#002080;fill-opacity:1;fill-rule:nonzero;stroke:none"
           id="path256-1-2-4" />
      </g>
      <g
         style="fill:#002080;fill-opacity:1"
         id="g258-5-7-9"
         transform="matrix(0.35277777,0,0,-0.29859896,396.85168,75.046232)">
        <path
           d="M 0,0 C 0,0 15.336,-40.357 86.365,0 Z"
           style="fill:#002080;fill-opacity:1;fill-rule:nonzero;stroke:none"
           id="path260-2-0-1" />
      </g>
      <g
         style="fill:#002080;fill-opacity:1"
         id="g262-22-3-7"
         transform="matrix(0.30188874,0,0,-0.32614002,439.21416,75.049822)">
        <path
           d="M 0,0 C 0,0 10.896,-44.394 90.401,0 Z"
           style="fill:#002080;fill-opacity:1;fill-rule:nonzero;stroke:none"
           id="path264-49-9-5" />
      </g>
      <g
         style="fill:#002080;fill-opacity:1"
         id="g266-77-9-5"
         transform="matrix(0.31401859,0,0,-0.25510607,481.36575,75.053412)">
        <path
           d="M 0,0 C 0,0 10.896,-44.394 90.401,0 Z"
           style="fill:#002080;fill-opacity:1;fill-rule:nonzero;stroke:none"
           id="path268-2-9-4" />
      </g>
      <text
         transform="scale(0.93460914,1.069966)"
         xml:space="preserve"
         style="font-style:normal;font-variant:normal;font-weight:900;font-stretch:normal;font-size:12.7px;line-height:1.25;font-family:'.Apple SD Gothic NeoI';-inkscape-font-specification:'.Apple SD Gothic NeoI, Heavy';font-variant-ligatures:normal;font-variant-caps:normal;font-variant-numeric:normal;font-variant-east-asian:normal;fill:#ffffff;fill-opacity:1;stroke:none;stroke-width:0.283096"
         x="513.62256"
         y="65.266876"
         id="text726-0-1-1"><tspan
           sodipodi:role="line"
           id="tspan724-9-72-8"
           x="513.62256"
           y="65.266876"
           style="font-style:normal;font-variant:normal;font-weight:900;font-stretch:normal;font-size:12.7px;font-family:'.Apple SD Gothic NeoI';-inkscape-font-specification:'.Apple SD Gothic NeoI, Heavy';font-variant-ligatures:normal;font-variant-caps:normal;font-variant-numeric:normal;font-variant-east-asian:normal;fill:#ffffff;stroke-width:0.283096">Pood</tspan></text>
      <text
         transform="scale(0.93460914,1.069966)"
         id="text726-2-07-3-8"
         y="65.305725"
         x="471.892"
         style="font-style:normal;font-variant:normal;font-weight:900;font-stretch:normal;font-size:12.7px;line-height:1.25;font-family:'.Apple SD Gothic NeoI';-inkscape-font-specification:'.Apple SD Gothic NeoI, Heavy';font-variant-ligatures:normal;font-variant-caps:normal;font-variant-numeric:normal;font-variant-east-asian:normal;fill:#ffffff;fill-opacity:1;stroke:none;stroke-width:0.283096"
         xml:space="preserve"><tspan
           style="font-style:normal;font-variant:normal;font-weight:900;font-stretch:normal;font-size:12.7px;font-family:'.Apple SD Gothic NeoI';-inkscape-font-specification:'.Apple SD Gothic NeoI, Heavy';font-variant-ligatures:normal;font-variant-caps:normal;font-variant-numeric:normal;font-variant-east-asian:normal;fill:#ffffff;stroke-width:0.283096"
           y="65.305725"
           x="471.892"
           id="tspan724-3-1-6-3"
           sodipodi:role="line">Paadi</tspan></text>
      <path
         id="text946-6-55-5"
         style="font-style:normal;font-variant:normal;font-weight:normal;font-stretch:normal;font-size:22.9306px;line-height:1.25;font-family:'Arial Rounded MT Bold';-inkscape-font-specification:'Arial Rounded MT Bold, Normal';font-variant-ligatures:normal;font-variant-caps:normal;font-variant-numeric:normal;font-variant-east-asian:normal;fill:#002080;fill-opacity:1;stroke:none;stroke-width:0.264583"
         d="m 406.60562,93.976064 c -0.71658,0 -1.23553,0.160656 -1.5565,0.481625 -0.32097,0.320967 -0.48111,0.839913 -0.48111,1.556494 V 108.6439 c 0,0.66433 0.14556,1.16818 0.43667,1.51154 0.29111,0.34336 0.70148,0.51521 1.23145,0.51521 0.49265,0 0.89182,-0.16456 1.19786,-0.49299 0.30604,-0.32843 0.4594,-0.83957 0.4594,-1.53376 v -3.13262 l -0.006,0.0114 v -5.746423 l 0.006,5.17e-4 v -3.303675 h 3.06752 c 1.14204,0 1.90732,0.08228 2.29546,0.246497 0.41054,0.171681 0.73135,0.433106 0.96273,0.783932 0.2314,0.34336 0.34727,0.742533 0.34727,1.197859 0,0.582222 -0.14555,1.041284 -0.43667,1.377173 -0.28364,0.32844 -0.69791,0.56356 -1.24281,0.70539 -0.5449,0.13436 -1.21671,0.20154 -2.01538,0.20154 h -0.49972 l -1.30638,2.38486 c 0.5862,6.9e-4 1.0724,0.0791 1.45883,0.23513 0.38815,0.15675 0.76883,0.44786 1.14205,0.87333 0.38068,0.42547 0.81006,1.04519 1.28778,1.8588 l 1.33221,2.21692 c 0.31351,0.52251 0.55983,0.91778 0.73898,1.18649 0.18661,0.26872 0.40715,0.48926 0.66094,0.66095 0.25379,0.17913 0.56729,0.26871 0.94051,0.26871 0.3135,0 0.58951,-0.0638 0.82837,-0.19068 0.23886,-0.11943 0.4253,-0.28348 0.55966,-0.49248 0.14182,-0.21647 0.21291,-0.43311 0.21291,-0.64957 0,-0.20901 -0.11926,-0.58969 -0.35812,-1.14205 -0.2314,-0.55983 -0.56,-1.18293 -0.98547,-1.86966 -0.41801,-0.69417 -0.89555,-1.34749 -1.43299,-1.95957 -0.53743,-0.61206 -1.10117,-1.07452 -1.69085,-1.38802 1.4033,-0.30604 2.44848,-0.82499 3.13521,-1.5565 0.69418,-0.73151 1.04128,-1.709512 1.04128,-2.93367 0,-0.597149 -0.10468,-1.160365 -0.31368,-1.690336 -0.20154,-0.537434 -0.49994,-1.007691 -0.89555,-1.410766 -0.39561,-0.403077 -0.85128,-0.713193 -1.36633,-0.929659 -0.42547,-0.194074 -0.90301,-0.321141 -1.43298,-0.380856 -0.52997,-0.06718 -1.16818,-0.100769 -1.91462,-0.100769 z m 57.70707,0 c -0.70912,0 -1.22416,0.160656 -1.54513,0.481625 -0.3135,0.313503 -0.47025,0.832449 -0.47025,1.556494 v 12.338777 c 0,0.70912 0.15284,1.22755 0.45888,1.55598 0.31351,0.32097 0.83245,0.48163 1.5565,0.48163 h 5.01623 c 0.86587,0 1.62333,-0.0409 2.27273,-0.12299 0.6494,-0.0896 1.22433,-0.23904 1.72444,-0.44804 0.79869,-0.35082 1.43299,-0.89216 1.90324,-1.62367 0.47026,-0.73898 0.70539,-1.56752 0.70539,-2.48564 0,-1.98552 -1.07827,-3.3213 -3.23546,-4.00802 1.64215,-0.76137 2.46289,-1.963305 2.46289,-3.605467 0,-0.47772 -0.0784,-0.929487 -0.23512,-1.354956 -0.15675,-0.432934 -0.38407,-0.824813 -0.68265,-1.175639 -0.29857,-0.35829 -0.64228,-0.652788 -1.03043,-0.884184 -0.45532,-0.276181 -0.97036,-0.463135 -1.54512,-0.560172 -0.57476,-0.09704 -1.25384,-0.145728 -2.0376,-0.145728 z m 1.31,2.497005 h 2.69854 c 1.20923,0 2.10886,0.138264 2.69854,0.414445 0.58969,0.268718 0.88419,0.81735 0.88419,1.645895 0,0.388147 -0.093,0.739145 -0.27957,1.052649 -0.23886,0.440402 -0.58596,0.738802 -1.04128,0.895552 -0.44787,0.15675 -1.08607,0.23513 -1.91462,0.23513 h -0.51263 l -1.30638,2.38487 h 2.23294 c 1.15698,0 2.02692,0.18643 2.60915,0.55965 0.58222,0.37322 0.87333,0.97445 0.87333,1.80299 0,1.61977 -1.12356,2.42931 -3.37034,2.42931 h -3.57187 v -4.79195 h 0.0109 v -2.38487 h -0.0109 z m -11.7228,1.746664 c -0.91812,0 -1.75396,0.149459 -2.50786,0.448035 -0.7539,0.291109 -1.38872,0.712674 -1.90376,1.265039 -0.51504,0.552363 -0.90692,1.216863 -1.17564,1.993163 -0.26872,0.76883 -0.40308,1.60466 -0.40308,2.50785 0,1.91835 0.54525,3.43769 1.63505,4.55735 1.0898,1.11966 2.61591,1.67948 4.57905,1.67948 0.85839,0 1.61638,-0.11196 2.27324,-0.33589 0.66433,-0.22394 1.21296,-0.50385 1.6459,-0.83975 0.44039,-0.34336 0.76848,-0.69826 0.98495,-1.06401 0.21647,-0.37322 0.32504,-0.69793 0.32504,-0.9741 0,-0.31351 -0.0974,-0.55593 -0.29145,-0.72761 -0.19407,-0.17168 -0.4477,-0.25735 -0.76119,-0.25735 -0.29112,0 -0.51505,0.0672 -0.6718,0.20154 -0.38068,0.35829 -0.69028,0.64159 -0.92914,0.85059 -0.23886,0.20901 -0.50029,0.40716 -0.78393,0.59377 -0.28365,0.17914 -0.57866,0.3135 -0.8847,0.40307 -0.29858,0.0821 -0.63057,0.12299 -0.99632,0.12299 -0.5449,0 -1.04484,-0.13436 -1.50017,-0.40307 -0.44786,-0.26872 -0.81006,-0.66789 -1.08624,-1.19786 -0.26872,-0.52997 -0.40698,-1.1424 -0.41444,-1.83658 h 5.97896 c 0.79869,0 1.4184,-0.11197 1.8588,-0.3359 0.4404,-0.2314 0.66042,-0.73134 0.66042,-1.50017 0,-0.82854 -0.21273,-1.64199 -0.6382,-2.44068 -0.42547,-0.79867 -1.06706,-1.448083 -1.92546,-1.948197 -0.85094,-0.507576 -1.87373,-0.76171 -3.06803,-0.76171 z m -28.34504,0.02274 c -0.87745,0.009 -1.6814,0.158274 -2.41174,0.447517 -0.7539,0.291111 -1.39601,0.709289 -1.92598,1.254187 -0.52997,0.544903 -0.93695,1.201593 -1.2206,1.970423 -0.28365,0.76883 -0.4253,1.61638 -0.4253,2.54196 0,0.91812 0.13827,1.75786 0.41445,2.51923 0.28364,0.7539 0.69401,1.41059 1.23145,1.97042 0.5449,0.55236 1.187,0.97783 1.92598,1.27641 0.73897,0.29857 1.5709,0.44803 2.49649,0.44803 0.93304,0 1.77278,-0.14555 2.51922,-0.43666 0.74644,-0.29858 1.38855,-0.72405 1.92598,-1.27641 0.53744,-0.55237 0.94781,-1.21296 1.23145,-1.98179 0.28365,-0.76883 0.42582,-1.60857 0.42582,-2.51923 0,-0.91812 -0.14217,-1.75787 -0.42582,-2.51922 -0.27618,-0.76137 -0.68264,-1.41858 -1.22008,-1.970942 -0.53743,-0.552363 -1.18345,-0.977832 -1.93735,-1.276408 -0.7539,-0.298574 -1.59364,-0.447517 -2.51922,-0.447517 -0.0285,0 -0.0564,-2.92e-4 -0.0847,0 z m 9.90792,0 c -0.42099,0.0088 -0.75408,0.154653 -0.99994,0.436665 -0.25379,0.283647 -0.38085,0.716408 -0.38085,1.298629 v 13.189373 c 0,0.66433 0.0935,1.16818 0.28008,1.51154 0.18661,0.35082 0.56729,0.52658 1.14205,0.52658 0.97783,0 1.46658,-0.67179 1.46658,-2.01538 v -4.59094 c 0.53743,0.67926 1.10116,1.1943 1.69085,1.54513 0.59715,0.35083 1.33222,0.52658 2.20555,0.52658 0.72405,0 1.39974,-0.14216 2.02675,-0.42581 0.63447,-0.29111 1.18311,-0.70148 1.64589,-1.23145 0.4628,-0.53744 0.82447,-1.19803 1.08573,-1.98179 0.26871,-0.79123 0.40307,-1.65726 0.40307,-2.59778 0,-1.2764 -0.23122,-2.38096 -0.69401,-3.31401 -0.45533,-0.93303 -1.07843,-1.642329 -1.86966,-2.127512 -0.79121,-0.485185 -1.65726,-0.727605 -2.59777,-0.727605 -0.78376,0 -1.48524,0.167948 -2.10478,0.503846 -0.61954,0.328431 -1.21687,0.847379 -1.79162,1.556491 v -0.369484 c 0,-0.552363 -0.13827,-0.974445 -0.41445,-1.265556 -0.26872,-0.298574 -0.6192,-0.447517 -1.05213,-0.447517 -0.0138,0 -0.0278,-2.85e-4 -0.0413,0 z m 48.39239,0 c -0.87744,0.009 -1.6814,0.158274 -2.41173,0.447517 -0.75391,0.291111 -1.3955,0.709289 -1.92547,1.254187 -0.52997,0.544903 -0.93695,1.201593 -1.2206,1.970423 -0.28364,0.76883 -0.42529,1.61638 -0.42529,2.54196 0,0.91812 0.13774,1.75786 0.41393,2.51923 0.28363,0.7539 0.69453,1.41059 1.23196,1.97042 0.5449,0.55236 1.18649,0.97783 1.92547,1.27641 0.73896,0.29857 1.57142,0.44803 2.497,0.44803 0.93305,0 1.77279,-0.14555 2.51923,-0.43666 0.74643,-0.29858 1.38854,-0.72405 1.92598,-1.27641 0.53743,-0.55237 0.9478,-1.21296 1.23145,-1.98179 0.28364,-0.76883 0.42529,-1.60857 0.42529,-2.51923 0,-0.91812 -0.14165,-1.75787 -0.42529,-2.51922 -0.27619,-0.76137 -0.68317,-1.41858 -1.2206,-1.970942 -0.53744,-0.552363 -1.18293,-0.977832 -1.93683,-1.276408 -0.75391,-0.298574 -1.59365,-0.447517 -2.51923,-0.447517 -0.0285,0 -0.057,-2.92e-4 -0.0853,0 z m 8.74004,0 c -0.41054,0 -0.74253,0.115354 -0.99632,0.346748 -0.25379,0.231396 -0.38086,0.504018 -0.38086,0.817522 0,0.403075 0.21274,0.877237 0.63821,1.422137 l 2.45204,3.30264 -2.7652,3.96358 c -0.41801,0.59715 -0.62735,1.05621 -0.62735,1.37718 0,0.3135 0.13435,0.59341 0.40307,0.83974 0.27618,0.23886 0.60869,0.35863 0.99684,0.35863 0.35083,0 0.63803,-0.0974 0.86196,-0.29145 0.2314,-0.19408 0.51132,-0.51878 0.83974,-0.9741 l 2.27273,-3.2582 2.21692,3.2582 c 0.31351,0.4404 0.59003,0.76171 0.82889,0.96325 0.24633,0.20153 0.54473,0.3023 0.89556,0.3023 0.39561,0 0.7276,-0.11587 0.99632,-0.34726 0.26872,-0.2314 0.40307,-0.50741 0.40307,-0.82838 0,-0.3135 -0.21612,-0.78037 -0.64905,-1.39991 l -2.76573,-3.96358 2.45205,-3.30264 c 0.22393,-0.29111 0.38798,-0.54134 0.49248,-0.75035 0.11196,-0.216457 0.16795,-0.440393 0.16795,-0.671787 0,-0.320969 -0.13436,-0.59359 -0.40308,-0.817522 -0.26125,-0.231394 -0.59324,-0.346748 -0.99632,-0.346748 -0.35083,0 -0.64584,0.09686 -0.8847,0.290938 -0.2314,0.194074 -0.50741,0.514869 -0.82838,0.962732 l -1.92598,2.709907 -1.98179,-2.709907 c -0.3135,-0.432934 -0.58951,-0.749826 -0.82837,-0.951363 -0.2314,-0.201539 -0.52641,-0.302307 -0.8847,-0.302307 z m -38.79608,2.104777 c 0.79869,0 1.44079,0.26143 1.92598,0.78393 0.49265,0.51505 0.77595,1.2949 0.85059,2.33991 h -5.54229 c 0.1045,-1.03008 0.39951,-1.80656 0.8847,-2.32905 0.49264,-0.52998 1.11965,-0.79479 1.88102,-0.79479 z m -28.15952,0.15658 c 0.92558,0 1.66116,0.34709 2.20606,1.04128 0.55237,0.69419 0.82838,1.6649 0.82838,2.91145 0,1.23162 -0.27601,2.19791 -0.82838,2.89957 -0.5449,0.69418 -1.28048,1.04128 -2.20606,1.04128 -0.61208,0 -1.14561,-0.15676 -1.60094,-0.47026 -0.44786,-0.32097 -0.79496,-0.78003 -1.04128,-1.37718 -0.23886,-0.59715 -0.35812,-1.29472 -0.35812,-2.09341 0,-0.80615 0.12316,-1.51153 0.36949,-2.11615 0.24632,-0.60461 0.5968,-1.06028 1.05213,-1.36632 0.45533,-0.31351 0.98157,-0.47026 1.57872,-0.47026 z m 58.30083,0 c 0.92558,0 1.66065,0.34709 2.20555,1.04128 0.55236,0.69419 0.82889,1.6649 0.82889,2.91145 0,1.23162 -0.27653,2.19791 -0.82889,2.89957 -0.5449,0.69418 -1.27997,1.04128 -2.20555,1.04128 -0.61208,0 -1.14561,-0.15676 -1.60094,-0.47026 -0.44785,-0.32097 -0.79495,-0.78003 -1.04128,-1.37718 -0.23886,-0.59715 -0.35863,-1.29472 -0.35863,-2.09341 0,-0.80615 0.12316,-1.51153 0.36949,-2.11615 0.24632,-0.60461 0.59732,-1.06028 1.05265,-1.36632 0.45531,-0.31351 0.98156,-0.47026 1.57871,-0.47026 z m -43.82368,0.0227 c 0.52997,0 1.01142,0.15675 1.44436,0.47025 0.44038,0.30604 0.7841,0.75 1.03042,1.33222 0.24633,0.57476 0.36949,1.26504 0.36949,2.07119 0,0.83601 -0.13097,1.54921 -0.39222,2.13889 -0.26126,0.58969 -0.60836,1.03364 -1.04128,1.33222 -0.43294,0.29111 -0.90319,0.43667 -1.41077,0.43667 -0.85094,0 -1.56361,-0.33591 -2.13837,-1.00769 -0.57476,-0.67926 -0.86196,-1.62706 -0.86196,-2.84376 0,-1.29134 0.2872,-2.26934 0.86196,-2.93367 0.58222,-0.66433 1.29489,-0.99632 2.13837,-0.99632 z" />
    </g>
  </g>
</svg>
