<?xml version="1.0" standalone="no"?>
<!DOCTYPE svg PUBLIC "-//W3C//DTD SVG 20010904//EN"
 "http://www.w3.org/TR/2001/REC-SVG-20010904/DTD/svg10.dtd">
<svg version="1.0" xmlns="http://www.w3.org/2000/svg"
 width="566.000000pt" height="444.000000pt" viewBox="0 0 566.000000 444.000000"
 preserveAspectRatio="xMidYMid meet">

<g transform="translate(0.000000,110.000000) scale(0.100000,-0.100000)"
fill="#000000" stroke="none">

<path d="M724 999 c-52 -15 -54 -31 -54 -368 0 -297 1 -309 21 -335 26 -33 77
-36 105 -5 18 20 19 42 22 316 l3 296 112 -5 c62 -3 123 -10 135 -17 49 -26
60 -107 20 -148 -18 -18 -42 -27 -93 -34 -38 -5 -69 -10 -70 -12 -1 -1 -13
-23 -27 -48 l-25 -47 37 -6 c47 -7 88 -51 160 -171 29 -50 64 -102 78 -117 44
-48 125 -31 125 26 0 46 -64 157 -128 222 l-60 62 45 16 c87 31 130 90 130
176 -1 118 -63 185 -187 201 -87 11 -309 10 -349 -2z"/>
<path d="M3283 1000 c-51 -16 -55 -45 -51 -383 l3 -299 24 -19 c21 -17 41 -19
200 -19 243 0 305 20 352 112 51 99 10 222 -85 258 l-30 11 37 30 c47 39 67
77 67 128 0 75 -33 126 -105 164 -35 17 -62 21 -210 23 -95 2 -184 -1 -202 -6z
m335 -124 c40 -21 51 -69 27 -115 -19 -37 -49 -51 -109 -51 -41 0 -44 -2 -69
-49 -15 -27 -27 -51 -27 -55 0 -3 38 -6 84 -6 70 0 88 -4 117 -23 67 -45 61
-134 -11 -169 -27 -14 -60 -18 -142 -18 l-108 0 0 256 0 257 103 -5 c67 -4
115 -11 135 -22z"/>
<path d="M1575 816 c-5 -3 -26 -7 -46 -10 -58 -10 -122 -59 -155 -118 -26 -48
-29 -62 -29 -148 0 -105 16 -149 72 -202 65 -62 186 -86 285 -56 62 18 133 89
154 151 51 153 -7 307 -137 361 -36 15 -126 29 -144 22z m101 -121 c39 -25 56
-61 62 -130 9 -122 -41 -195 -135 -195 -33 0 -50 7 -77 30 -83 74 -67 264 27
306 37 16 88 12 123 -11z"/>
<path d="M2005 795 l-25 -24 0 -328 c0 -373 1 -377 68 -371 52 4 62 30 62 166
l0 114 42 -36 c46 -40 86 -51 159 -44 72 7 126 48 164 123 27 54 30 69 29 150
-1 97 -14 139 -60 194 -74 88 -206 99 -293 25 -37 -32 -41 -34 -41 -14 0 25
-42 70 -65 70 -9 0 -27 -11 -40 -25z m289 -90 c49 -24 77 -81 77 -160 0 -77
-22 -130 -65 -156 -108 -66 -215 50 -186 202 11 58 38 94 85 115 39 17 50 17
89 -1z"/>
<path d="M2787 810 c-124 -32 -188 -124 -188 -272 0 -175 93 -267 271 -267 58
-1 86 4 125 23 82 38 128 109 93 144 -20 20 -48 14 -91 -22 -58 -47 -80 -56
-127 -56 -59 0 -98 24 -121 73 -35 78 -40 75 152 79 166 3 171 4 190 27 51 63
-10 199 -113 252 -45 23 -138 32 -191 19z m146 -116 c28 -28 52 -87 42 -104
-8 -12 -231 -14 -239 -2 -11 18 16 82 45 106 43 37 116 37 152 0z"/>
<path d="M4127 810 c-133 -33 -201 -124 -201 -270 -1 -169 102 -270 273 -270
157 0 261 110 261 276 0 108 -65 212 -154 249 -43 18 -134 26 -179 15z m136
-115 c39 -25 61 -81 61 -155 0 -111 -48 -170 -137 -170 -44 0 -53 4 -83 35
-38 41 -48 81 -42 165 5 69 27 106 79 133 38 20 84 17 122 -8z"/>
<path d="M4542 804 c-38 -27 -28 -62 44 -158 l66 -88 -76 -111 c-42 -62 -76
-119 -76 -128 0 -24 33 -49 63 -49 33 0 49 15 117 113 30 42 56 77 59 77 4 0
26 -30 51 -67 73 -108 88 -123 124 -123 79 0 75 49 -14 177 -38 56 -70 104
-70 108 0 3 29 48 65 98 73 101 80 132 33 155 -41 19 -68 2 -127 -82 -30 -42
-58 -76 -62 -76 -4 0 -29 29 -54 65 -47 65 -88 105 -109 105 -6 0 -22 -7 -34
-16z"/>
</g>
</svg>
