<?xml version="1.0" standalone="no"?>
<!DOCTYPE svg PUBLIC "-//W3C//DTD SVG 20010904//EN"
 "http://www.w3.org/TR/2001/REC-SVG-20010904/DTD/svg10.dtd">
<svg version="1.0" xmlns="http://www.w3.org/2000/svg"
 width="90.000000pt" height="90.000000pt" viewBox="0 0 90.000000 90.000000"
 preserveAspectRatio="xMidYMid meet">

<g transform="translate(0.000000,90.000000) scale(0.100000,-0.100000)"
fill="#000000" stroke="none">
<path d="M441 846 c-34 -34 -52 -60 -49 -72 5 -28 36 -29 64 -3 l24 22 0 -66
0 -67 -127 0 -128 0 -23 75 c-27 90 -48 108 -119 103 -44 -3 -48 -5 -48 -28 0
-23 4 -25 46 -28 l47 -3 47 -162 c91 -309 93 -315 125 -332 23 -12 68 -15 209
-15 184 0 217 6 238 40 18 28 95 320 89 336 -4 11 -34 14 -151 14 l-145 0 0
67 0 66 24 -22 c28 -26 59 -25 64 3 5 22 -93 126 -118 126 -9 0 -40 -24 -69
-54z m97 -303 l-3 -118 -25 0 -25 0 -3 118 -3 117 31 0 31 0 -3 -117z"/>
<path d="M320 190 c-11 -11 -20 -29 -20 -40 0 -26 34 -60 60 -60 26 0 60 34
60 60 0 11 -9 29 -20 40 -11 11 -29 20 -40 20 -11 0 -29 -9 -40 -20z"/>
<path d="M620 190 c-11 -11 -20 -29 -20 -40 0 -26 34 -60 60 -60 26 0 60 34
60 60 0 11 -9 29 -20 40 -11 11 -29 20 -40 20 -11 0 -29 -9 -40 -20z"/>
</g>
</svg>
