<?xml version="1.0" standalone="no"?>
<!DOCTYPE svg PUBLIC "-//W3C//DTD SVG 20010904//EN"
 "http://www.w3.org/TR/2001/REC-SVG-20010904/DTD/svg10.dtd">
<svg version="1.0" xmlns="http://www.w3.org/2000/svg"
 width="67.000000pt" height="67.000000pt" viewBox="0 0 67.000000 67.000000"
 preserveAspectRatio="xMidYMid meet">

<g transform="translate(0.000000,67.000000) scale(0.100000,-0.100000)"
fill="#000000" stroke="none">
<path d="M285 645 c-30 -29 -32 -54 -5 -88 l20 -25 -30 -7 c-60 -13 -28 -25
68 -25 87 1 95 2 78 15 -11 8 -26 15 -34 15 -12 0 -11 4 3 20 26 29 24 79 -4
102 -32 25 -67 23 -96 -7z"/>
<path d="M208 478 c-11 -10 -17 -38 -21 -105 -4 -60 -13 -108 -26 -138 l-20
-45 194 0 194 0 -21 48 c-14 31 -23 78 -27 140 -5 66 -10 96 -21 102 -23 15
-233 12 -252 -2z"/>
<path d="M94 125 c-35 -54 -27 -56 243 -53 l248 3 -3 25 c-5 47 -20 50 -254
50 l-218 0 -16 -25z"/>
<path d="M280 42 c0 -14 35 -42 51 -42 21 0 60 30 54 41 -8 11 -105 12 -105 1z"/>
</g>
</svg>
