<?xml version="1.0" standalone="no"?>
<!DOCTYPE svg PUBLIC "-//W3C//DTD SVG 20010904//EN"
 "http://www.w3.org/TR/2001/REC-SVG-20010904/DTD/svg10.dtd">
<svg version="1.0" xmlns="http://www.w3.org/2000/svg"
 width="552.000000pt" height="458.000000pt" viewBox="0 0 552.000000 458.000000"
 preserveAspectRatio="xMidYMid meet">

<g transform="translate(0.000000,458.000000) scale(0.100000,-0.100000)"
fill="#000000" stroke="none">
<path d="M2583 4461 c-84 -31 -148 -80 -182 -140 -16 -29 -71 -198 -71 -220 0
-8 -7 -34 -16 -58 -13 -32 -25 -45 -53 -56 -20 -8 -38 -13 -40 -12 -3 3 11 55
40 149 5 16 7 32 4 35 -3 2 -34 -22 -68 -55 -70 -69 -163 -141 -222 -175 -136
-76 -266 -130 -385 -160 -127 -31 -276 -63 -415 -87 -272 -48 -424 -82 -522
-117 -153 -56 -312 -188 -370 -308 -53 -108 -57 -125 -57 -241 0 -118 13 -170
61 -248 13 -21 23 -41 23 -45 1 -12 91 -117 132 -152 l37 -32 58 31 c68 37 75
41 172 103 40 26 76 47 78 47 9 0 307 222 393 293 52 43 152 137 221 208 85
87 133 129 147 129 27 0 29 -30 6 -69 -26 -44 -238 -249 -384 -371 -163 -136
-476 -346 -632 -424 -68 -33 -138 -98 -200 -186 -87 -124 -112 -203 -106 -342
6 -133 44 -235 133 -348 35 -46 187 -188 204 -193 13 -3 23 6 37 32 36 70 128
216 156 249 15 18 28 36 28 40 0 5 8 17 18 28 10 10 38 46 64 79 25 33 54 69
65 80 10 11 36 42 58 69 21 27 48 60 60 72 11 12 35 39 54 60 90 101 121 136
207 229 144 157 174 192 246 284 38 47 72 91 77 97 21 26 121 193 146 246 27
55 47 74 66 62 17 -10 9 -55 -19 -112 -68 -136 -153 -251 -475 -637 -39 -46
-93 -108 -171 -195 -147 -164 -426 -520 -426 -544 0 -3 -17 -34 -37 -68 -95
-159 -123 -245 -123 -381 0 -100 2 -112 31 -171 88 -181 259 -260 503 -232 56
7 110 17 121 23 14 7 25 31 34 65 37 153 119 341 228 521 29 48 53 89 53 91 0
2 36 62 80 135 44 72 80 133 80 135 0 2 18 34 40 70 22 36 40 68 40 71 0 2 11
28 24 57 34 76 53 125 72 188 9 30 20 64 25 75 4 11 14 56 22 100 9 44 21 106
27 138 12 58 31 80 52 59 16 -16 -28 -269 -61 -357 -16 -40 -33 -90 -38 -110
-3 -11 -16 -44 -29 -73 -13 -29 -24 -59 -24 -66 0 -7 -7 -19 -15 -26 -8 -7
-15 -19 -15 -26 0 -8 -4 -22 -10 -32 -5 -9 -27 -53 -48 -97 -44 -91 -39 -81
-130 -240 -69 -119 -118 -206 -133 -235 -93 -186 -111 -231 -150 -375 -23 -88
-23 -114 0 -195 27 -95 73 -178 133 -240 69 -72 86 -84 172 -129 134 -69 264
-96 431 -88 175 9 278 34 421 104 46 22 55 31 50 48 -40 164 -49 252 -43 450
6 185 17 297 41 420 8 39 19 108 25 155 6 47 18 141 27 210 12 95 14 183 11
365 -2 132 -6 251 -8 265 -3 18 1 25 15 28 27 6 33 -9 46 -118 19 -147 8 -392
-35 -740 -9 -74 -18 -182 -21 -240 -3 -58 -9 -152 -14 -209 -19 -207 -6 -419
36 -556 12 -42 24 -56 72 -91 84 -60 160 -100 249 -130 68 -22 95 -26 213 -26
152 0 235 17 350 74 77 39 199 129 256 189 78 83 156 201 210 319 14 30 31 66
37 79 43 87 -31 341 -164 557 -21 36 -39 69 -39 74 0 6 -3 10 -7 10 -5 0 -19
17 -33 38 -24 36 -220 302 -230 312 -3 3 -43 57 -90 120 -47 63 -87 117 -90
120 -3 3 -31 43 -62 90 -89 134 -158 285 -143 310 8 13 45 13 45 0 0 -11 82
-183 102 -215 7 -11 23 -34 35 -52 13 -17 23 -35 23 -40 0 -4 10 -19 23 -33
13 -14 26 -32 29 -40 7 -16 62 -83 251 -306 197 -231 351 -481 407 -659 7 -22
16 -51 21 -65 4 -14 11 -46 15 -72 7 -55 12 -58 112 -65 163 -13 357 45 485
146 57 45 157 168 157 194 0 7 4 17 9 22 4 6 16 33 25 62 19 61 22 247 5 302
-34 107 -47 134 -109 216 -123 164 -290 316 -587 535 -423 311 -660 533 -791
742 -45 72 -51 95 -27 104 21 8 41 -10 66 -61 12 -24 31 -53 43 -66 12 -13 38
-47 58 -75 44 -60 222 -234 303 -296 85 -64 154 -114 207 -151 87 -59 373
-270 409 -301 19 -17 60 -51 90 -76 92 -77 262 -252 303 -312 45 -66 56 -69
124 -34 114 58 234 176 285 281 52 105 61 143 61 270 1 133 -13 197 -73 325
-44 96 -204 300 -235 300 -7 0 -17 5 -24 12 -12 12 -35 21 -172 67 -105 36
-156 51 -290 86 -126 32 -262 72 -310 90 -239 89 -335 133 -457 211 -55 35
-66 61 -38 84 12 10 23 7 62 -18 71 -45 237 -126 323 -157 41 -14 91 -32 110
-40 56 -20 204 -64 360 -105 87 -23 160 -45 227 -66 39 -13 76 -24 82 -24 5 0
38 -13 73 -29 39 -19 68 -26 77 -21 25 14 43 100 48 228 4 100 1 130 -13 170
-81 217 -318 351 -709 402 -133 17 -347 53 -485 82 -52 11 -113 24 -135 29
-37 7 -86 20 -190 49 -179 51 -345 125 -497 223 -32 21 -58 34 -58 30 0 -4 17
-56 37 -115 20 -60 35 -110 32 -112 -9 -9 -78 19 -83 34 -66 214 -157 354
-260 398 -52 23 -136 24 -193 3z"/>
</g>
</svg>
