<?xml version="1.0" standalone="no"?>
<!DOCTYPE svg PUBLIC "-//W3C//DTD SVG 20010904//EN"
 "http://www.w3.org/TR/2001/REC-SVG-20010904/DTD/svg10.dtd">
<svg version="1.0" xmlns="http://www.w3.org/2000/svg"
 width="100.000000pt" height="100.000000pt" viewBox="0 0 100.000000 100.000000"
 preserveAspectRatio="xMidYMid meet">

<g transform="translate(0.000000,100.000000) scale(0.100000,-0.100000)"
fill="#000000" stroke="none">
<path d="M482 983 c-5 -10 -26 -72 -46 -137 -20 -66 -38 -121 -40 -124 -3 -2
-46 17 -96 43 -120 63 -128 55 -65 -65 26 -50 45 -93 43 -95 -2 -3 -62 -22
-133 -45 -134 -41 -156 -53 -139 -70 6 -6 68 -28 139 -50 71 -23 131 -42 133
-45 2 -2 -17 -45 -43 -95 -63 -120 -55 -128 65 -65 50 26 93 45 96 43 2 -2 21
-62 43 -132 41 -133 53 -158 71 -140 6 6 28 68 50 139 23 71 42 131 45 133 2
2 44 -18 94 -44 120 -64 129 -56 66 65 -26 51 -46 93 -44 95 2 2 64 23 136 46
73 23 135 46 139 51 11 19 -11 30 -142 70 -70 22 -130 42 -133 45 -3 3 15 45
41 93 65 120 57 130 -62 67 -50 -26 -93 -46 -96 -44 -2 3 -20 58 -40 124 -39
129 -50 154 -64 154 -5 0 -13 -8 -18 -17z m64 -412 l-46 -46 0 190 1 190 45
-144 46 -144 -46 -46z m-116 -26 l44 -45 -189 1 -190 0 140 44 c77 24 142 44
145 44 3 1 26 -19 50 -44z m330 -91 l-144 -45 -45 46 -46 45 190 -1 190 0
-145 -45z m-261 -171 l0 -188 -45 144 -44 145 42 43 c23 24 43 43 45 43 2 0 3
-84 2 -187z"/>
</g>
</svg>
