<?xml version="1.0" standalone="no"?>
<!DOCTYPE svg PUBLIC "-//W3C//DTD SVG 20010904//EN"
 "http://www.w3.org/TR/2001/REC-SVG-20010904/DTD/svg10.dtd">
<svg version="1.0" xmlns="http://www.w3.org/2000/svg"
 width="652.000000pt" height="642.000000pt" viewBox="0 0 652.000000 642.000000"
 preserveAspectRatio="xMidYMid meet">

<g transform="translate(0.000000,642.000000) scale(0.100000,-0.100000)"
fill="#000000" stroke="none">
<path d="M2635 6190 c-10 -11 -28 -20 -40 -20 -13 0 -25 -7 -29 -15 -3 -8 -16
-15 -29 -15 -13 0 -32 -9 -42 -20 -10 -11 -26 -20 -36 -20 -24 0 -209 -184
-209 -208 0 -11 -9 -27 -20 -37 -13 -12 -20 -31 -20 -55 0 -21 -6 -43 -14 -49
-10 -9 -13 -27 -9 -71 6 -57 5 -60 -21 -69 -19 -8 -26 -18 -26 -37 0 -25 -2
-25 -52 25 -29 28 -62 51 -73 51 -11 0 -28 9 -38 20 -9 11 -25 20 -36 20 -10
0 -24 7 -31 15 -7 8 -29 15 -50 15 -21 0 -43 7 -50 15 -10 12 -40 15 -152 15
-114 0 -140 -3 -144 -15 -5 -11 -24 -15 -81 -15 -73 0 -77 -1 -109 -35 -18
-19 -41 -35 -52 -35 -24 0 -182 -159 -182 -183 0 -10 -16 -33 -35 -51 -29 -27
-35 -41 -35 -74 0 -26 -5 -42 -15 -46 -13 -4 -15 -36 -15 -196 0 -160 2 -192
15 -196 8 -4 15 -17 15 -30 0 -13 9 -32 20 -41 11 -10 20 -24 20 -32 0 -8 18
-31 41 -52 34 -32 39 -40 30 -57 -10 -19 -23 -20 -185 -24 -148 -2 -177 -6
-193 -20 -11 -10 -35 -18 -54 -18 -27 0 -43 -8 -69 -35 -19 -19 -42 -35 -52
-35 -34 0 -78 -41 -78 -72 0 -15 -4 -28 -9 -28 -18 0 -61 -47 -61 -67 0 -11
-9 -28 -19 -37 -26 -23 -16 -46 19 -46 37 0 120 73 120 106 0 17 6 24 20 24
11 0 29 9 40 20 11 11 31 20 45 20 14 0 28 7 31 15 4 8 15 15 25 15 10 0 28 9
39 20 18 18 33 20 194 20 142 0 176 -3 186 -15 7 -8 23 -15 36 -15 13 0 28 -9
34 -20 6 -11 21 -20 33 -20 31 0 177 -147 177 -178 0 -12 7 -25 15 -28 8 -4
15 -16 15 -29 0 -12 9 -30 20 -40 16 -14 20 -31 20 -77 0 -43 4 -60 15 -64 8
-4 15 -16 15 -29 0 -13 -7 -25 -15 -29 -12 -4 -15 -23 -15 -83 0 -66 -3 -81
-20 -96 -11 -9 -20 -25 -20 -36 0 -10 -6 -23 -13 -29 -9 -8 -12 -30 -9 -71 4
-58 3 -61 -22 -71 -15 -5 -38 -10 -50 -10 -13 0 -29 -7 -36 -15 -7 -8 -21 -15
-32 -15 -10 0 -33 -16 -51 -35 -27 -29 -39 -35 -74 -35 -25 0 -45 -6 -50 -14
-6 -10 -46 -15 -148 -20 -133 -7 -142 -6 -167 13 -14 12 -34 21 -43 21 -9 0
-19 9 -22 19 -3 10 -17 21 -31 24 -15 3 -50 28 -78 56 -29 28 -60 51 -70 51
-25 0 -64 42 -64 68 0 11 -7 25 -15 32 -7 6 -17 32 -21 56 -3 24 -12 48 -19
52 -9 5 -14 52 -17 169 -2 92 -8 167 -14 173 -7 7 -20 1 -42 -18 -26 -23 -32
-36 -32 -69 0 -27 -5 -43 -15 -47 -19 -7 -19 -30 0 -46 11 -9 15 -35 15 -106
0 -83 2 -94 20 -104 11 -6 20 -21 20 -34 0 -13 7 -29 15 -36 8 -7 15 -23 15
-36 0 -13 9 -28 20 -34 11 -6 20 -21 20 -33 0 -27 114 -142 150 -150 94 -22
95 -22 98 -50 4 -31 -3 -35 -70 -40 -26 -2 -56 -11 -66 -20 -10 -9 -28 -17
-39 -17 -11 0 -26 -7 -33 -15 -7 -8 -22 -15 -34 -15 -12 0 -37 -16 -56 -35
-19 -19 -43 -35 -55 -35 -25 0 -75 -49 -75 -74 0 -10 -16 -32 -35 -49 -21 -19
-35 -40 -35 -54 0 -13 -7 -26 -15 -29 -11 -5 -15 -22 -15 -64 0 -44 -4 -61
-20 -75 -18 -17 -20 -31 -20 -182 0 -151 2 -164 20 -180 11 -10 20 -28 20 -41
0 -12 7 -25 15 -28 8 -4 15 -17 15 -30 0 -13 9 -32 20 -41 11 -10 20 -26 20
-36 0 -25 124 -147 149 -147 10 0 24 -7 31 -15 7 -8 23 -15 35 -15 13 0 25 -7
29 -15 3 -8 14 -15 24 -15 11 0 31 -9 45 -20 14 -11 33 -20 42 -20 10 0 23 -6
29 -14 8 -11 43 -16 126 -20 63 -3 116 -5 118 -6 2 0 -11 -12 -30 -27 -50 -42
-77 -76 -78 -96 0 -10 -16 -33 -35 -51 -19 -19 -35 -43 -35 -55 0 -12 -7 -24
-15 -27 -8 -4 -15 -18 -15 -34 0 -17 -8 -33 -23 -43 l-22 -15 23 -24 c29 -32
29 -81 -1 -101 l-22 -15 30 -31 c19 -19 40 -31 58 -31 33 0 48 27 24 45 -24
17 -25 190 -2 199 8 3 15 12 15 20 0 8 16 24 35 36 26 16 35 29 35 49 0 20 12
37 47 67 26 21 54 47 62 57 9 9 25 17 36 17 11 0 36 16 55 35 19 19 44 35 56
35 12 0 24 7 28 15 4 10 20 15 50 15 32 0 48 5 56 18 10 16 10 16 20 0 13 -22
36 -23 48 -3 12 22 82 23 94 2 7 -13 23 -17 67 -17 52 0 60 -3 91 -35 19 -20
44 -35 56 -35 13 0 27 -6 31 -14 4 -8 19 -16 32 -18 17 -2 27 -12 32 -30 4
-15 30 -49 58 -76 31 -30 51 -58 51 -71 0 -12 7 -24 15 -27 8 -4 15 -17 15
-30 0 -13 9 -32 20 -42 19 -18 20 -29 18 -193 l-3 -174 -30 -5 c-28 -5 -30 -9
-33 -50 -3 -37 -10 -51 -38 -76 -19 -17 -34 -35 -34 -40 0 -6 -18 -27 -39 -47
-31 -29 -47 -37 -76 -37 -30 0 -44 -7 -72 -37 -30 -31 -41 -36 -81 -37 -26 -1
-57 2 -68 7 -32 11 -84 -37 -84 -79 0 -35 13 -44 64 -44 20 0 40 8 51 20 15
16 31 20 90 20 52 0 76 4 85 15 7 8 21 15 31 15 11 0 27 9 36 20 25 29 76 26
108 -5 31 -32 34 -84 5 -103 -20 -12 -25 -37 -14 -66 11 -29 64 -20 96 16 15
17 28 33 28 34 0 2 -4 14 -9 28 -8 19 -6 30 10 49 10 14 19 33 19 43 0 10 15
32 34 49 19 16 36 41 37 55 3 19 11 26 34 28 36 4 88 53 83 78 -2 14 4 20 24
22 14 2 32 10 38 18 8 9 32 14 66 14 41 0 59 5 74 20 17 17 33 20 123 20 91 0
104 -2 115 -20 9 -15 23 -20 56 -20 30 0 46 -5 50 -15 3 -8 16 -15 29 -15 13
0 32 -9 42 -20 10 -11 26 -20 37 -20 23 0 128 -105 128 -129 0 -10 9 -26 20
-36 11 -10 20 -29 20 -42 0 -13 7 -26 15 -29 8 -4 15 -16 15 -29 0 -12 9 -30
20 -40 17 -16 20 -31 20 -119 0 -89 -2 -104 -20 -119 -11 -9 -20 -28 -20 -41
0 -13 -7 -26 -15 -30 -10 -3 -15 -19 -15 -45 0 -36 -7 -46 -111 -150 -64 -65
-119 -111 -130 -111 -11 0 -27 -9 -36 -20 -12 -14 -30 -20 -59 -20 -28 0 -44
-5 -48 -15 -8 -22 -191 -22 -200 0 -4 11 -21 15 -63 15 -46 0 -62 4 -76 20 -9
11 -26 20 -37 20 -11 0 -41 22 -67 49 -27 27 -59 51 -73 53 -18 2 -26 10 -28
28 -2 13 -19 39 -38 57 -19 17 -34 39 -34 49 0 10 -7 25 -15 34 -8 9 -17 47
-21 88 -8 79 -39 132 -78 132 -35 0 -46 -20 -46 -80 0 -44 4 -61 20 -75 16
-14 20 -31 20 -77 0 -43 4 -60 15 -64 8 -4 15 -16 15 -27 0 -31 227 -257 258
-257 12 0 25 -7 28 -15 4 -10 20 -15 45 -15 27 0 45 -6 56 -20 16 -19 30 -20
219 -20 188 0 202 1 219 20 10 11 28 20 40 20 13 0 25 7 29 15 3 8 15 15 28
15 29 0 218 187 218 215 0 11 9 28 20 38 11 9 20 25 20 35 0 21 40 62 60 62
19 0 90 -78 90 -98 0 -24 19 -42 43 -42 11 0 50 -31 88 -70 48 -49 75 -70 92
-70 14 0 27 -6 30 -14 3 -7 26 -17 50 -20 25 -4 51 -14 57 -21 8 -10 32 -15
72 -15 43 0 60 -4 64 -15 9 -21 112 -21 120 0 5 11 21 15 61 15 40 0 62 6 80
20 14 11 34 20 45 20 10 0 21 7 24 15 4 8 16 15 28 15 29 0 256 227 256 257 0
11 7 23 15 27 9 3 15 18 15 35 0 16 6 31 12 33 7 3 17 35 23 74 12 79 26 89
68 50 15 -14 27 -28 27 -31 0 -17 86 -95 105 -95 11 0 28 -9 38 -20 9 -11 25
-20 36 -20 10 0 24 -7 31 -15 7 -8 23 -15 36 -15 13 0 27 -8 32 -17 7 -12 27
-18 71 -21 34 -2 65 -10 72 -18 15 -18 93 -18 108 0 8 9 39 15 92 18 64 2 83
7 90 21 7 11 22 17 48 17 34 0 46 8 107 70 38 38 78 70 88 70 22 0 76 56 76
78 0 8 16 30 35 49 28 28 35 41 35 74 0 26 5 42 15 45 10 4 15 20 15 49 0 29
6 47 20 60 18 16 20 31 20 127 0 96 -2 110 -20 125 -14 12 -20 30 -20 59 0 28
-5 44 -15 48 -8 3 -15 17 -15 31 0 14 -9 30 -20 37 -11 7 -20 23 -20 35 0 13
-14 36 -31 52 l-31 30 32 31 c24 23 37 29 58 25 15 -3 65 -8 112 -12 78 -5 87
-4 104 16 13 14 31 21 55 21 28 0 44 9 78 42 24 23 43 48 43 55 0 8 13 13 35
13 24 0 35 5 35 15 0 8 4 15 10 15 20 0 62 53 57 72 -4 13 7 30 34 56 21 20
39 46 39 56 0 10 7 24 16 30 10 8 17 35 21 86 4 48 11 78 19 83 21 12 20 215
-1 223 -11 5 -15 22 -15 63 0 52 -3 60 -35 91 -19 19 -35 42 -35 52 0 10 -9
26 -20 35 -11 10 -20 26 -20 36 0 11 -31 51 -70 90 -38 39 -70 75 -70 81 1 22
50 66 73 66 14 0 27 7 31 15 3 9 18 15 36 15 18 0 33 6 36 15 4 8 16 15 28 15
26 1 116 90 116 117 0 10 23 41 50 68 29 29 50 58 50 71 0 12 6 27 14 33 8 6
17 31 20 55 4 25 13 47 21 50 22 8 22 314 0 322 -10 4 -15 20 -15 50 0 33 -5
46 -20 54 -13 7 -20 21 -20 39 0 16 -7 31 -15 35 -8 3 -15 15 -15 26 0 27
-151 180 -178 180 -10 0 -27 9 -37 20 -10 11 -28 20 -40 20 -13 0 -25 7 -29
15 -3 10 -19 15 -46 15 -28 0 -45 6 -57 20 -16 18 -30 20 -130 20 -110 0 -113
1 -113 22 0 14 26 47 70 90 65 64 70 72 65 101 -5 25 -2 37 14 51 12 11 21 27
21 38 0 10 9 27 20 38 18 18 20 33 20 195 0 163 -1 176 -20 192 -11 10 -20 27
-20 38 0 11 -16 36 -35 55 -19 19 -35 42 -35 52 0 24 -186 208 -211 208 -10 0
-28 9 -39 20 -11 11 -29 20 -40 20 -11 0 -23 7 -26 15 -5 13 -40 15 -228 15
-209 0 -223 -1 -239 -20 -9 -11 -25 -20 -35 -20 -10 0 -33 -16 -52 -35 -19
-20 -44 -35 -56 -35 -13 0 -26 -4 -29 -10 -16 -25 -25 -4 -25 57 0 49 5 71 17
85 14 16 15 22 5 36 -24 33 -24 43 -3 66 26 28 27 58 1 81 -14 13 -20 31 -20
60 0 29 -5 45 -15 49 -10 3 -15 19 -15 44 0 30 -7 45 -35 72 -19 19 -35 43
-35 53 0 24 -154 177 -178 177 -10 0 -27 9 -37 20 -10 11 -28 20 -40 20 -13 0
-25 7 -29 15 -4 11 -21 15 -64 15 -46 0 -63 4 -77 20 -15 17 -31 20 -95 20
-64 0 -80 -3 -95 -20 -14 -16 -31 -20 -75 -20 -42 0 -59 -4 -64 -15 -3 -8 -16
-15 -29 -15 -13 0 -32 -9 -42 -20 -10 -11 -26 -20 -36 -20 -10 0 -39 -22 -65
-50 -28 -30 -55 -50 -68 -50 -26 0 -46 -18 -46 -41 0 -10 -13 -33 -30 -51 -18
-20 -30 -43 -30 -61 0 -15 -7 -30 -15 -33 -8 -4 -15 -17 -15 -29 0 -29 -13
-38 -40 -30 -15 5 -20 15 -20 44 0 25 -7 44 -20 56 -11 10 -20 29 -20 42 0 13
-7 26 -15 29 -8 4 -15 16 -15 28 0 27 -46 72 -82 81 -20 5 -28 14 -28 28 0 29
-78 107 -107 107 -12 0 -27 9 -33 20 -6 11 -21 20 -34 20 -13 0 -29 7 -36 15
-7 8 -23 15 -36 15 -13 0 -28 9 -34 20 -10 19 -21 20 -179 20 -155 0 -169 -2
-186 -20z m350 -120 c10 -11 29 -20 42 -20 13 0 26 -7 29 -15 4 -8 16 -15 28
-15 14 0 44 -22 78 -55 32 -32 64 -55 77 -55 14 0 21 -6 21 -20 0 -11 9 -29
20 -40 11 -11 20 -31 20 -44 0 -13 7 -26 15 -30 8 -3 15 -15 15 -26 0 -11 9
-29 20 -40 18 -18 20 -33 20 -158 0 -125 -2 -139 -20 -155 -14 -11 -20 -29
-20 -56 0 -26 -5 -41 -15 -45 -11 -4 -14 -13 -9 -30 5 -21 -4 -34 -57 -85 -35
-34 -71 -61 -81 -61 -10 0 -32 -16 -49 -35 -24 -27 -39 -35 -64 -35 -18 0 -44
-9 -58 -20 -20 -16 -40 -20 -95 -20 -56 0 -72 -4 -87 -20 -10 -11 -24 -20 -32
-20 -7 0 -22 9 -33 20 -15 15 -33 20 -72 20 -34 0 -58 6 -70 17 -10 9 -29 18
-41 20 -12 2 -25 10 -30 18 -4 8 -18 15 -29 15 -28 0 -148 118 -148 145 0 11
-14 34 -30 52 -17 18 -30 43 -30 57 0 14 -6 29 -14 33 -10 6 -18 47 -26 136
-13 136 -9 187 15 207 8 7 15 28 15 48 0 28 8 42 40 72 22 20 40 45 40 54 0
23 50 65 77 66 17 0 25 8 31 33 6 23 15 33 33 35 13 2 28 10 32 18 4 8 18 14
31 14 13 0 31 9 41 20 17 18 31 20 185 20 154 0 168 -2 185 -20z m1260 -70
c10 -11 29 -20 42 -20 13 0 26 -7 29 -15 4 -10 20 -15 47 -15 37 0 46 -6 133
-94 52 -51 94 -101 94 -110 0 -9 9 -25 20 -36 11 -11 20 -28 20 -37 0 -9 8
-25 18 -36 15 -17 17 -39 15 -175 -2 -129 -5 -157 -18 -164 -8 -5 -15 -19 -15
-32 0 -13 -7 -29 -15 -36 -8 -7 -15 -21 -15 -32 0 -27 -148 -178 -175 -178
-11 0 -28 -9 -38 -20 -9 -11 -25 -20 -36 -20 -10 0 -24 -7 -31 -15 -7 -8 -29
-15 -50 -15 -24 0 -43 -7 -55 -20 -17 -19 -26 -20 -104 -14 -50 4 -93 12 -102
20 -8 8 -30 14 -48 14 -18 0 -45 9 -59 21 -19 15 -35 19 -57 15 -27 -5 -37 2
-107 73 -43 44 -78 87 -78 97 0 9 -16 32 -36 49 -29 26 -36 40 -36 68 0 22 -7
42 -19 53 -17 15 -19 32 -19 143 0 114 2 128 20 144 13 11 20 30 21 54 0 33 7
44 54 83 30 25 55 52 55 61 0 26 79 99 106 99 13 0 28 9 34 20 6 12 21 20 36
20 13 0 27 7 30 15 4 8 19 15 35 15 18 0 32 7 39 20 10 18 21 20 129 20 105 0
120 -2 136 -20z m-2411 -385 c3 -10 19 -15 44 -15 35 0 47 -8 150 -110 67 -67
112 -119 112 -131 0 -10 9 -27 20 -36 14 -12 20 -30 20 -59 0 -28 5 -44 15
-48 10 -3 15 -19 15 -45 0 -23 7 -46 16 -55 14 -15 14 -17 0 -32 -9 -9 -16
-32 -16 -55 0 -26 -5 -42 -15 -45 -20 -8 -19 -23 2 -46 15 -17 15 -20 -15 -47
-18 -15 -32 -38 -32 -50 0 -13 -20 -42 -49 -71 -31 -31 -51 -60 -53 -77 -2
-22 -9 -29 -30 -31 -14 -2 -32 -10 -38 -18 -7 -8 -22 -14 -35 -14 -12 0 -30
-9 -40 -20 -10 -11 -28 -20 -40 -20 -13 0 -25 -7 -29 -15 -4 -12 -24 -15 -93
-15 -65 0 -95 -4 -111 -16 -21 -15 -25 -15 -41 0 -12 11 -36 16 -75 16 -41 0
-58 4 -62 15 -4 8 -16 15 -29 15 -12 0 -30 9 -40 20 -10 11 -28 20 -40 20 -13
0 -28 7 -35 15 -7 8 -20 15 -29 15 -28 0 -81 50 -81 77 0 13 -7 26 -15 29 -8
4 -15 13 -15 20 0 8 -13 28 -30 44 -26 25 -30 37 -30 81 0 35 -6 59 -16 71
-25 26 -33 198 -11 231 8 13 18 41 21 63 4 21 13 44 21 50 8 6 15 21 15 32 0
12 9 26 19 32 11 5 21 22 23 37 2 22 9 29 33 33 24 4 31 11 35 35 4 23 11 31
30 33 14 2 40 19 57 38 27 28 40 34 73 34 27 0 43 5 46 15 5 13 36 15 189 15
153 0 184 -2 189 -15z m3466 -350 c7 -8 29 -15 50 -15 24 0 43 -7 55 -20 10
-11 28 -20 40 -20 13 0 25 -7 29 -15 3 -8 16 -15 28 -15 27 0 148 -116 148
-142 0 -10 16 -34 35 -54 31 -32 35 -42 35 -89 0 -34 5 -57 15 -65 11 -9 15
-34 15 -100 0 -69 -3 -89 -15 -94 -10 -3 -15 -19 -15 -46 0 -28 -6 -45 -20
-57 -11 -10 -20 -27 -20 -39 0 -12 -7 -27 -15 -34 -8 -7 -15 -21 -15 -33 0
-25 -81 -107 -107 -107 -10 0 -34 -16 -53 -35 -19 -19 -42 -35 -52 -35 -10 0
-27 -9 -38 -20 -11 -11 -29 -20 -39 -20 -10 0 -21 -7 -25 -15 -4 -12 -31 -15
-149 -15 -132 0 -145 2 -162 20 -13 14 -29 20 -51 18 -20 -1 -41 5 -52 15 -10
9 -26 17 -34 17 -23 0 -178 155 -178 178 0 10 -15 33 -34 51 -27 26 -32 38
-30 65 3 23 -2 38 -16 51 -17 15 -20 31 -20 103 0 59 4 90 14 101 8 9 17 34
20 56 4 22 13 43 21 48 8 4 15 18 15 31 0 13 9 31 20 41 11 10 20 26 20 36 0
27 147 169 175 169 13 0 25 7 29 15 3 8 17 15 31 15 14 0 30 9 37 20 8 12 24
20 41 20 15 0 30 7 33 15 5 12 27 15 114 15 83 0 110 -3 120 -15z m-1646 -420
c7 -19 55 -19 76 0 15 14 18 14 30 0 8 -10 31 -15 69 -15 44 0 60 -4 74 -20
11 -13 29 -20 52 -20 26 0 43 -8 65 -30 16 -16 35 -30 42 -30 27 0 78 -45 78
-70 0 -16 12 -35 35 -54 20 -17 35 -39 35 -51 0 -12 8 -29 18 -38 10 -9 19
-33 20 -54 2 -21 9 -43 17 -49 21 -16 22 -189 0 -197 -10 -5 -15 -28 -17 -89
l-3 -83 -30 -5 c-22 -4 -31 -11 -33 -29 -4 -29 -116 -141 -140 -141 -10 0 -40
-25 -67 -55 l-50 -55 -109 0 c-87 0 -113 -3 -128 -16 -16 -16 -18 -16 -24 0
-4 10 -17 16 -35 16 -18 0 -32 7 -39 20 -9 16 -21 20 -67 20 -51 0 -59 3 -90
35 -19 19 -43 35 -53 35 -23 0 -130 104 -130 126 0 9 -18 34 -40 56 -36 37
-40 46 -40 92 0 40 -4 54 -20 64 -17 10 -20 23 -20 86 0 60 3 76 20 91 15 14
20 31 20 72 0 46 4 58 28 81 16 16 32 40 35 54 4 14 17 33 31 41 13 9 49 41
80 71 31 31 65 56 75 56 10 0 24 7 31 15 7 8 21 15 31 15 11 0 28 9 39 20 13
13 33 20 60 20 27 0 43 5 46 15 4 8 10 15 14 15 4 0 10 -7 14 -15z m-1120
-140 c4 -12 23 -15 82 -15 l76 0 109 -110 c60 -60 109 -116 109 -124 0 -8 16
-32 35 -53 l35 -38 0 -193 0 -193 -32 -29 c-17 -16 -32 -38 -33 -48 -2 -31
-173 -212 -206 -219 -15 -3 -30 -11 -33 -19 -3 -8 -16 -14 -28 -14 -13 0 -31
-9 -41 -21 -15 -17 -28 -20 -87 -18 -53 2 -74 -2 -88 -14 -28 -25 -102 -22
-138 5 -16 12 -33 28 -37 35 -4 7 -18 13 -30 13 -13 0 -38 16 -57 35 -19 19
-44 35 -55 35 -11 0 -53 34 -97 80 -70 72 -78 85 -78 119 0 25 -5 41 -15 45
-8 3 -15 16 -15 29 0 13 -9 32 -20 42 -18 16 -20 31 -20 140 0 109 2 124 20
140 11 10 20 28 20 40 0 13 7 25 15 29 8 3 15 16 15 29 0 16 13 35 40 57 31
26 39 37 34 55 -4 17 -1 25 15 30 11 3 31 19 45 36 14 17 35 29 48 29 14 0 34
13 52 35 27 32 34 35 87 35 38 0 61 5 69 15 9 11 35 15 105 15 73 0 94 -3 99
-15z m3323 -625 c12 -14 30 -20 59 -20 28 0 44 -5 48 -15 3 -8 16 -15 28 -15
28 0 178 -148 178 -177 0 -10 9 -26 20 -36 11 -9 20 -25 20 -36 0 -10 7 -24
15 -31 9 -7 15 -29 15 -51 0 -21 4 -41 10 -44 25 -16 29 -43 10 -65 -17 -19
-20 -38 -20 -115 0 -73 -3 -94 -15 -99 -8 -3 -15 -17 -15 -30 0 -15 -8 -30
-20 -36 -11 -6 -20 -21 -20 -34 0 -30 -139 -176 -169 -176 -11 0 -26 -9 -33
-20 -8 -12 -24 -20 -39 -20 -15 0 -29 -7 -33 -15 -4 -13 -34 -15 -184 -15
-147 0 -182 3 -192 15 -7 8 -22 15 -35 15 -12 0 -30 9 -40 20 -10 11 -25 20
-34 20 -24 0 -171 145 -171 168 0 11 -7 25 -15 32 -9 8 -15 29 -15 56 0 33 -5
46 -20 54 -19 10 -20 21 -20 156 0 119 3 146 15 150 8 4 15 16 15 29 0 12 9
30 20 40 11 10 20 27 20 38 0 28 188 207 218 207 12 0 25 7 28 15 5 11 22 15
64 15 44 0 61 4 75 20 16 17 31 20 117 20 86 0 100 -3 115 -20z m-1363 -245
c3 -9 18 -15 40 -15 21 0 36 6 40 15 3 8 16 15 30 15 13 0 26 -7 30 -15 4 -11
21 -15 64 -15 46 0 63 -4 77 -20 10 -11 27 -20 37 -20 11 0 34 -16 52 -35 19
-19 42 -35 52 -35 23 0 64 -42 64 -65 0 -10 16 -32 35 -51 29 -27 35 -40 35
-73 0 -27 5 -43 17 -49 11 -7 18 -28 21 -68 2 -33 9 -65 15 -72 7 -9 7 -16 -1
-24 -7 -7 -12 -43 -12 -83 0 -59 -4 -75 -20 -90 -11 -10 -20 -29 -20 -42 0
-13 -7 -26 -15 -29 -8 -4 -15 -16 -15 -28 0 -29 -149 -186 -177 -186 -11 0
-26 -7 -33 -15 -7 -8 -23 -15 -36 -15 -13 0 -27 -6 -31 -14 -4 -8 -28 -16 -52
-19 -25 -3 -50 -12 -56 -21 -16 -22 -193 -24 -201 -2 -3 7 -27 16 -54 20 -28
4 -50 12 -54 21 -3 8 -16 15 -29 15 -13 0 -37 15 -57 35 -19 19 -42 35 -53 35
-26 0 -107 79 -107 105 0 11 -14 33 -32 48 -28 25 -31 34 -32 87 -1 44 -6 63
-19 72 -25 19 -28 180 -4 206 11 12 17 36 17 67 0 46 2 50 75 120 41 39 75 80
75 90 0 27 39 65 67 65 13 0 26 7 29 15 4 8 17 15 30 15 13 0 32 9 41 20 14
16 30 20 76 20 42 0 59 4 63 15 4 8 10 15 14 15 4 0 10 -7 14 -15z m-1050
-210 c3 -10 19 -15 48 -15 32 0 46 -5 56 -20 7 -11 22 -20 35 -20 12 0 38 -16
57 -35 19 -20 44 -35 57 -35 17 0 23 -6 23 -22 0 -12 8 -30 17 -40 9 -10 18
-28 20 -39 2 -11 18 -34 35 -51 32 -31 33 -36 36 -123 2 -49 9 -96 14 -102 7
-9 7 -17 0 -25 -5 -7 -12 -54 -14 -104 -4 -87 -5 -92 -36 -122 -18 -17 -32
-39 -32 -49 0 -25 -120 -143 -145 -143 -11 0 -33 -16 -49 -35 -25 -30 -36 -35
-72 -35 -26 0 -46 -6 -51 -14 -6 -10 -49 -15 -164 -20 -147 -6 -157 -5 -179
14 -13 11 -31 20 -40 20 -10 0 -23 7 -30 15 -7 8 -21 15 -32 15 -28 0 -216
189 -212 213 1 10 -6 23 -17 30 -10 6 -19 21 -19 33 0 11 -9 29 -20 39 -18 16
-20 31 -20 155 0 124 2 139 20 155 13 12 20 31 20 56 0 34 7 43 75 104 43 39
75 75 75 86 0 24 35 59 58 59 11 0 27 9 37 20 13 14 31 20 60 20 29 0 45 5 49
15 4 12 33 15 170 15 136 0 165 -3 170 -15z m-1294 -140 c7 -8 22 -15 34 -15
12 0 29 -9 39 -20 9 -11 25 -20 35 -20 10 0 33 -16 52 -35 19 -19 42 -35 52
-35 24 0 98 -73 98 -97 0 -11 7 -26 15 -33 8 -7 15 -21 15 -31 0 -11 9 -27 20
-36 16 -14 20 -30 20 -74 0 -38 5 -61 15 -69 10 -8 15 -31 15 -70 0 -42 -4
-59 -15 -64 -11 -4 -15 -21 -15 -61 0 -41 -6 -63 -21 -85 -14 -18 -20 -38 -17
-54 4 -21 -5 -37 -51 -86 -31 -33 -65 -60 -75 -60 -10 0 -34 -16 -55 -37 -20
-20 -47 -39 -61 -43 -18 -4 -26 -14 -28 -33 -4 -30 -23 -35 -42 -12 -17 21
-44 19 -66 -6 -17 -19 -25 -20 -109 -13 -59 4 -93 11 -98 20 -5 10 -28 14 -71
14 -48 0 -65 4 -70 15 -3 8 -17 15 -30 15 -15 0 -30 8 -36 20 -6 11 -20 20
-32 20 -30 0 -178 147 -178 177 0 12 -9 27 -20 33 -16 9 -20 21 -20 69 0 40
-5 63 -15 71 -8 7 -15 28 -15 48 0 19 -7 44 -17 54 -15 17 -15 19 0 36 10 11
17 35 17 59 0 27 5 43 15 47 10 3 15 19 15 44 0 26 7 45 20 57 11 10 20 28 20
40 0 13 12 30 26 41 15 10 51 43 80 72 30 28 62 52 73 52 10 0 24 7 31 15 7 8
21 15 31 15 11 0 27 9 36 20 13 14 30 20 61 20 29 0 44 5 48 15 5 12 30 15
134 15 101 0 130 -3 140 -15z m-1388 -155 c22 0 41 -7 53 -20 13 -14 31 -20
60 -20 29 0 45 -5 49 -15 3 -8 16 -15 28 -15 13 0 31 -9 41 -20 9 -11 28 -20
41 -20 13 0 26 -6 29 -14 3 -8 18 -16 34 -18 21 -2 29 -9 31 -28 2 -14 19 -40
38 -57 20 -20 34 -43 34 -57 0 -13 7 -26 15 -30 8 -3 15 -17 15 -31 0 -14 9
-30 20 -37 15 -10 20 -24 20 -55 0 -28 5 -45 16 -51 14 -8 14 -10 0 -21 -13
-11 -16 -36 -16 -123 l0 -109 -35 -32 c-19 -17 -35 -41 -35 -52 0 -11 -9 -28
-21 -38 -13 -12 -18 -24 -14 -37 4 -14 -5 -30 -37 -60 -24 -22 -51 -40 -61
-40 -9 0 -25 -9 -34 -20 -10 -11 -28 -20 -41 -20 -12 0 -25 -7 -28 -15 -4 -8
-17 -15 -30 -15 -13 0 -32 -10 -43 -22 -20 -20 -26 -21 -158 -14 -104 5 -141
10 -149 21 -6 9 -28 15 -50 15 -31 1 -46 8 -74 35 -19 19 -42 35 -53 35 -24 0
-95 74 -103 107 -4 13 -13 27 -20 29 -52 16 -50 15 -31 25 21 12 22 38 2 45
-9 4 -17 26 -21 54 -4 27 -13 51 -20 54 -21 8 -20 288 1 306 8 7 15 22 15 34
0 12 9 27 20 34 11 7 20 22 20 33 0 26 143 169 169 169 10 0 26 9 36 20 10 11
29 20 42 20 13 0 26 7 29 15 4 8 16 15 29 15 12 0 30 9 40 20 10 11 29 20 42
20 13 0 26 7 30 15 5 14 7 14 23 0 9 -8 32 -15 52 -15z m4891 -510 c11 -13 29
-20 52 -20 26 0 43 -9 71 -35 19 -19 43 -35 53 -35 27 0 131 -108 131 -136 0
-13 9 -28 20 -34 12 -6 20 -21 20 -36 0 -13 7 -27 15 -30 13 -5 15 -35 15
-184 0 -146 -3 -180 -15 -190 -8 -7 -15 -23 -15 -36 0 -13 -9 -28 -20 -34 -11
-6 -20 -21 -20 -33 -1 -12 -20 -41 -45 -67 -25 -25 -45 -48 -45 -52 0 -14 -62
-68 -80 -68 -9 0 -23 -7 -30 -15 -7 -8 -22 -15 -33 -15 -11 0 -28 -6 -36 -14
-12 -11 -60 -17 -184 -22 -162 -7 -169 -6 -197 14 -16 12 -43 22 -60 22 -25 0
-43 11 -85 55 -37 39 -60 55 -79 55 -21 0 -26 5 -26 25 0 16 -13 37 -35 58
-23 21 -35 41 -35 58 0 15 -7 29 -15 33 -10 3 -15 19 -15 48 0 32 -5 46 -20
56 -18 11 -20 23 -20 102 0 79 2 91 20 100 11 6 20 21 20 34 0 13 9 31 19 40
13 11 18 28 16 49 -2 29 9 44 111 145 82 82 119 112 137 112 14 0 27 6 30 14
3 7 19 16 36 19 17 4 34 13 37 22 5 12 30 15 148 15 129 0 143 -2 159 -20z
m-1405 -206 c5 -9 28 -18 53 -21 24 -3 48 -12 52 -19 4 -8 19 -14 32 -14 28 0
175 -141 175 -168 0 -11 9 -27 20 -37 11 -10 20 -29 20 -42 0 -13 7 -26 15
-29 12 -5 15 -24 15 -85 0 -55 4 -80 14 -86 25 -15 29 -51 6 -63 -17 -9 -20
-20 -20 -71 0 -44 -4 -61 -15 -65 -8 -4 -15 -18 -15 -33 0 -18 -11 -35 -35
-55 -20 -17 -35 -39 -35 -51 0 -27 -110 -145 -135 -145 -10 0 -26 -7 -35 -15
-10 -9 -28 -18 -41 -20 -12 -3 -27 -11 -31 -20 -8 -13 -39 -15 -191 -15 -171
0 -183 1 -195 20 -7 11 -23 20 -36 20 -13 0 -26 7 -30 15 -3 8 -16 15 -28 15
-15 0 -54 32 -120 97 -90 89 -98 101 -98 136 0 24 -5 40 -15 43 -10 4 -15 20
-15 47 0 22 -6 48 -14 56 -7 9 -16 39 -19 67 -5 43 -3 55 14 70 14 13 19 30
19 74 0 39 5 62 15 70 8 7 15 20 15 30 0 9 18 33 40 54 22 20 40 45 40 55 0
23 79 101 102 101 10 0 32 14 48 30 22 22 39 30 65 30 22 0 42 7 53 19 15 17
32 19 159 20 119 1 143 -2 151 -15z m-1294 -139 c3 -10 19 -15 44 -15 34 0 46
-7 93 -55 30 -30 62 -55 72 -55 10 0 45 -27 78 -59 52 -53 59 -64 59 -99 0
-24 5 -42 14 -45 8 -3 15 -29 19 -68 3 -41 11 -67 21 -75 20 -14 21 -80 2 -91
-9 -5 -15 -35 -18 -86 -5 -73 -7 -80 -38 -109 -19 -16 -34 -38 -35 -48 -1 -17
-52 -83 -117 -151 -15 -16 -37 -29 -48 -29 -11 0 -28 -9 -37 -20 -10 -11 -27
-20 -39 -20 -12 0 -27 -7 -34 -15 -9 -11 -32 -15 -83 -15 -51 0 -75 -4 -89
-17 -17 -15 -19 -15 -36 0 -13 12 -36 17 -74 17 -37 0 -60 5 -68 15 -8 10 -30
15 -64 15 l-51 0 -132 131 -133 132 0 52 c0 39 -5 56 -20 70 -16 15 -20 31
-20 88 0 52 -4 75 -17 89 -16 18 -15 21 20 52 21 19 37 42 37 55 0 12 7 24 15
27 10 4 15 20 15 45 0 32 7 46 43 84 24 25 47 45 51 45 4 0 22 16 40 35 19 19
42 35 52 35 11 0 35 16 54 35 27 28 42 35 72 35 25 0 41 5 44 15 5 12 32 15
154 15 122 0 149 -3 154 -15z m2171 -805 c10 -11 28 -20 40 -20 13 0 25 -7 29
-15 3 -8 16 -15 30 -15 26 0 76 -50 76 -77 0 -9 23 -38 50 -64 28 -26 50 -55
50 -64 0 -9 9 -28 20 -42 18 -23 20 -39 17 -188 -2 -139 -5 -166 -19 -182 -10
-11 -18 -29 -18 -42 0 -12 -7 -24 -15 -27 -8 -4 -15 -16 -15 -28 0 -24 -142
-170 -175 -180 -11 -3 -35 -19 -53 -36 -31 -28 -39 -30 -107 -30 -64 0 -76 -3
-85 -20 -9 -17 -21 -20 -80 -20 -57 0 -74 4 -90 20 -15 15 -33 20 -69 20 -43
0 -55 5 -88 35 -21 19 -45 35 -54 35 -23 0 -173 149 -174 173 -1 11 -9 24 -18
29 -10 5 -17 21 -17 37 0 16 -7 31 -15 35 -12 4 -15 29 -15 135 0 105 3 130
15 135 11 4 15 21 15 64 0 46 4 63 20 77 11 10 20 28 20 39 0 14 34 55 93 113
89 90 93 92 129 87 29 -5 40 -2 54 15 18 20 27 21 225 21 193 0 207 -1 224
-20z m-1400 -280 c15 -16 31 -20 90 -20 52 0 76 -4 85 -15 7 -8 21 -15 31 -15
11 0 67 -47 129 -110 110 -110 110 -110 110 -158 0 -34 6 -57 20 -75 17 -22
20 -40 20 -141 0 -103 -2 -118 -20 -136 -13 -13 -20 -33 -20 -59 0 -25 -5 -41
-15 -45 -8 -3 -15 -16 -15 -28 0 -13 -9 -31 -20 -41 -11 -9 -20 -28 -20 -42 0
-20 -5 -25 -25 -25 -16 0 -37 -13 -58 -35 -17 -19 -41 -35 -52 -35 -11 0 -36
-16 -55 -35 -31 -32 -39 -35 -91 -35 -41 0 -58 -4 -63 -15 -8 -22 -224 -22
-232 0 -4 10 -20 15 -48 15 -34 0 -46 6 -73 35 -18 19 -41 35 -50 35 -26 0
-143 116 -143 140 0 12 -16 35 -35 53 -28 25 -35 40 -35 68 0 23 -7 42 -20 54
-18 16 -20 31 -20 142 0 101 3 125 15 129 8 4 15 16 15 29 0 12 9 30 20 40 11
10 20 29 20 42 0 13 7 26 15 29 8 4 15 18 15 31 0 32 43 73 76 73 17 0 41 16
74 50 32 33 57 50 73 50 14 0 27 7 31 15 4 11 21 15 61 15 41 0 59 5 73 19 25
28 112 28 137 1z"/>
<path d="M653 1493 c-18 -7 -16 -68 2 -83 8 -7 15 -29 15 -49 0 -47 46 -94 87
-89 24 3 28 8 31 37 2 23 -2 37 -12 43 -10 6 -16 23 -16 48 0 61 -60 113 -107
93z"/>
<path d="M828 1209 c-10 -5 -18 -21 -18 -34 0 -29 54 -85 82 -85 11 0 34 -16
51 -35 26 -30 37 -35 73 -35 29 0 44 -5 48 -15 5 -13 20 -15 73 -13 60 3 68 5
68 23 0 14 -8 21 -25 23 -14 2 -33 12 -43 23 -11 12 -31 19 -52 19 -26 0 -44
9 -71 35 -19 19 -43 35 -51 35 -9 0 -33 16 -54 35 -41 37 -53 41 -81 24z"/>
</g>
</svg>
